<?xml version="1.0" encoding="UTF-8" standalone="no"?>
<!DOCTYPE svg PUBLIC "-//W3C//DTD SVG 1.1//EN"
 "http://www.w3.org/Graphics/SVG/1.1/DTD/svg11.dtd">
<!-- Generated by graphviz version 2.44.0 (20200408.0750)
 -->
<!-- Title: dependency&#45;cruiser output Pages: 1 -->
<svg width="459pt" height="174pt"
 viewBox="0.00 0.00 459.47 174.00" xmlns="http://www.w3.org/2000/svg" xmlns:xlink="http://www.w3.org/1999/xlink">
<g id="graph0" class="graph" transform="scale(1 1) rotate(0) translate(4 170)">
<title>dependency&#45;cruiser output</title>
<polygon fill="white" stroke="transparent" points="-4,4 -4,-170 455.47,-170 455.47,4 -4,4"/>
<g id="clust1" class="cluster">
<title>cluster_src</title>
<path fill="#ffffff" stroke="black" stroke-width="2" d="M20,-8C20,-8 431.47,-8 431.47,-8 437.47,-8 443.47,-14 443.47,-20 443.47,-20 443.47,-146 443.47,-146 443.47,-152 437.47,-158 431.47,-158 431.47,-158 20,-158 20,-158 14,-158 8,-152 8,-146 8,-146 8,-20 8,-20 8,-14 14,-8 20,-8"/>
<text text-anchor="middle" x="225.74" y="-145.9" font-family="Helvetica,sans-Serif" font-weight="bold" font-size="9.00">src</text>
</g>
<g id="clust2" class="cluster">
<title>cluster_src/components</title>
<path fill="#ffffff" stroke="black" stroke-width="2" d="M308.49,-20C308.49,-20 423.47,-20 423.47,-20 429.47,-20 435.47,-26 435.47,-32 435.47,-32 435.47,-61 435.47,-61 435.47,-67 429.47,-73 423.47,-73 423.47,-73 308.49,-73 308.49,-73 302.49,-73 296.49,-67 296.49,-61 296.49,-61 296.49,-32 296.49,-32 296.49,-26 302.49,-20 308.49,-20"/>
<text text-anchor="middle" x="365.98" y="-60.9" font-family="Helvetica,sans-Serif" font-weight="bold" font-size="9.00">components</text>
</g>
<g id="clust3" class="cluster">
<title>cluster_src/handlers</title>
<path fill="#ffffff" stroke="black" stroke-width="2" d="M209.49,-16C209.49,-16 276.49,-16 276.49,-16 282.49,-16 288.49,-22 288.49,-28 288.49,-28 288.49,-119 288.49,-119 288.49,-125 282.49,-131 276.49,-131 276.49,-131 209.49,-131 209.49,-131 203.49,-131 197.49,-125 197.49,-119 197.49,-119 197.49,-28 197.49,-28 197.49,-22 203.49,-16 209.49,-16"/>
<text text-anchor="middle" x="242.99" y="-118.9" font-family="Helvetica,sans-Serif" font-weight="bold" font-size="9.00">handlers</text>
</g>
<g id="clust4" class="cluster">
<title>cluster_src/init</title>
<path fill="#ffffff" stroke="black" stroke-width="2" d="M30.25,-73C30.25,-73 76.25,-73 76.25,-73 82.25,-73 88.25,-79 88.25,-85 88.25,-85 88.25,-114 88.25,-114 88.25,-120 82.25,-126 76.25,-126 76.25,-126 30.25,-126 30.25,-126 24.25,-126 18.25,-120 18.25,-114 18.25,-114 18.25,-85 18.25,-85 18.25,-79 24.25,-73 30.25,-73"/>
<text text-anchor="middle" x="53.25" y="-113.9" font-family="Helvetica,sans-Serif" font-weight="bold" font-size="9.00">init</text>
</g>
<g id="clust5" class="cluster">
<title>cluster_src/listeners</title>
<path fill="#ffffff" stroke="black" stroke-width="2" d="M110.5,-16C110.5,-16 177.49,-16 177.49,-16 183.49,-16 189.49,-22 189.49,-28 189.49,-28 189.49,-119 189.49,-119 189.49,-125 183.49,-131 177.49,-131 177.49,-131 110.5,-131 110.5,-131 104.5,-131 98.5,-125 98.5,-119 98.5,-119 98.5,-28 98.5,-28 98.5,-22 104.5,-16 110.5,-16"/>
<text text-anchor="middle" x="144" y="-118.9" font-family="Helvetica,sans-Serif" font-weight="bold" font-size="9.00">listeners</text>
</g>
<!-- src/DOMstudies.js -->
<g id="node1" class="node">
<title>src/DOMstudies.js</title>
<g id="a_node1"><a xlink:href="../src/DOMstudies.js" xlink:title="DOMstudies.js">
<path fill="#ccffcc" stroke="black" d="M84.05,-65.3C84.05,-65.3 22.45,-65.3 22.45,-65.3 19.35,-65.3 16.25,-62.2 16.25,-59.1 16.25,-59.1 16.25,-52.9 16.25,-52.9 16.25,-49.8 19.35,-46.7 22.45,-46.7 22.45,-46.7 84.05,-46.7 84.05,-46.7 87.15,-46.7 90.25,-49.8 90.25,-52.9 90.25,-52.9 90.25,-59.1 90.25,-59.1 90.25,-62.2 87.15,-65.3 84.05,-65.3"/>
<text text-anchor="middle" x="53.25" y="-53.3" font-family="Helvetica,sans-Serif" font-size="9.00">DOMstudies.js</text>
</a>
</g>
</g>
<!-- src/components/list&#45;item.js -->
<g id="node2" class="node">
<title>src/components/list&#45;item.js</title>
<g id="a_node2"><a xlink:href="../src/components/list-item.js" xlink:title="list&#45;item.js">
<path fill="#ffffcc" stroke="black" d="M421.27,-46.3C421.27,-46.3 377.69,-46.3 377.69,-46.3 374.59,-46.3 371.49,-43.2 371.49,-40.1 371.49,-40.1 371.49,-33.9 371.49,-33.9 371.49,-30.8 374.59,-27.7 377.69,-27.7 377.69,-27.7 421.27,-27.7 421.27,-27.7 424.37,-27.7 427.47,-30.8 427.47,-33.9 427.47,-33.9 427.47,-40.1 427.47,-40.1 427.47,-43.2 424.37,-46.3 421.27,-46.3"/>
<text text-anchor="middle" x="399.48" y="-34.3" font-family="Helvetica,sans-Serif" font-size="9.00">list&#45;item.js</text>
</a>
</g>
</g>
<!-- src/components/list.js -->
<g id="node3" class="node">
<title>src/components/list.js</title>
<g id="a_node3"><a xlink:href="../src/components/list.js" xlink:title="list.js">
<path fill="#ffffcc" stroke="black" d="M352.29,-46.3C352.29,-46.3 310.69,-46.3 310.69,-46.3 307.59,-46.3 304.49,-43.2 304.49,-40.1 304.49,-40.1 304.49,-33.9 304.49,-33.9 304.49,-30.8 307.59,-27.7 310.69,-27.7 310.69,-27.7 352.29,-27.7 352.29,-27.7 355.39,-27.7 358.49,-30.8 358.49,-33.9 358.49,-33.9 358.49,-40.1 358.49,-40.1 358.49,-43.2 355.39,-46.3 352.29,-46.3"/>
<text text-anchor="middle" x="331.49" y="-34.3" font-family="Helvetica,sans-Serif" font-size="9.00">list.js</text>
</a>
</g>
</g>
<!-- src/components/list.js&#45;&gt;src/components/list&#45;item.js -->
<g id="edge1" class="edge">
<title>src/components/list.js&#45;&gt;src/components/list&#45;item.js</title>
<path fill="none" stroke="#000000" stroke-width="2" stroke-opacity="0.200000" d="M358.57,-37C360.66,-37 362.79,-37 364.92,-37"/>
<polygon fill="#000000" fill-opacity="0.200000" stroke="#000000" stroke-width="2" stroke-opacity="0.200000" points="365.29,-39.1 371.29,-37 365.29,-34.9 365.29,-39.1"/>
</g>
<!-- src/data.js -->
<g id="node4" class="node">
<title>src/data.js</title>
<g id="a_node4"><a xlink:href="../src/data.js" xlink:title="data.js">
<path fill="#ffffcc" stroke="black" d="M352.29,-101.3C352.29,-101.3 310.69,-101.3 310.69,-101.3 307.59,-101.3 304.49,-98.2 304.49,-95.1 304.49,-95.1 304.49,-88.9 304.49,-88.9 304.49,-85.8 307.59,-82.7 310.69,-82.7 310.69,-82.7 352.29,-82.7 352.29,-82.7 355.39,-82.7 358.49,-85.8 358.49,-88.9 358.49,-88.9 358.49,-95.1 358.49,-95.1 358.49,-98.2 355.39,-101.3 352.29,-101.3"/>
<text text-anchor="middle" x="331.49" y="-89.3" font-family="Helvetica,sans-Serif" font-size="9.00">data.js</text>
</a>
</g>
</g>
<!-- src/handlers/add&#45;item.js -->
<g id="node5" class="node">
<title>src/handlers/add&#45;item.js</title>
<g id="a_node5"><a xlink:href="../src/handlers/add-item.js" xlink:title="add&#45;item.js">
<path fill="#ffffcc" stroke="black" d="M266.79,-104.3C266.79,-104.3 219.19,-104.3 219.19,-104.3 216.09,-104.3 212.99,-101.2 212.99,-98.1 212.99,-98.1 212.99,-91.9 212.99,-91.9 212.99,-88.8 216.09,-85.7 219.19,-85.7 219.19,-85.7 266.79,-85.7 266.79,-85.7 269.89,-85.7 272.99,-88.8 272.99,-91.9 272.99,-91.9 272.99,-98.1 272.99,-98.1 272.99,-101.2 269.89,-104.3 266.79,-104.3"/>
<text text-anchor="middle" x="242.99" y="-92.3" font-family="Helvetica,sans-Serif" font-size="9.00">add&#45;item.js</text>
</a>
</g>
</g>
<!-- src/handlers/add&#45;item.js&#45;&gt;src/components/list.js -->
<g id="edge2" class="edge">
<title>src/handlers/add&#45;item.js&#45;&gt;src/components/list.js</title>
<path fill="none" stroke="#000000" stroke-width="2" stroke-opacity="0.200000" d="M273.22,-88.99C278.9,-86.67 284.36,-83.46 288.49,-79 297.57,-69.19 287.5,-59.9 296.49,-50 297.31,-49.09 298.21,-48.24 299.17,-47.45"/>
<polygon fill="#000000" fill-opacity="0.200000" stroke="#000000" stroke-width="2" stroke-opacity="0.200000" points="300.53,-49.07 304.33,-43.97 298.18,-45.58 300.53,-49.07"/>
</g>
<!-- src/handlers/add&#45;item.js&#45;&gt;src/data.js -->
<g id="edge3" class="edge">
<title>src/handlers/add&#45;item.js&#45;&gt;src/data.js</title>
<path fill="none" stroke="#000000" stroke-width="2" stroke-opacity="0.200000" d="M273.27,-93.98C281.32,-93.71 290.09,-93.4 298.29,-93.12"/>
<polygon fill="#000000" fill-opacity="0.200000" stroke="#000000" stroke-width="2" stroke-opacity="0.200000" points="298.5,-95.21 304.42,-92.9 298.36,-91.01 298.5,-95.21"/>
</g>
<!-- src/handlers/filter&#45;items.js -->
<g id="node6" class="node">
<title>src/handlers/filter&#45;items.js</title>
<g id="a_node6"><a xlink:href="../src/handlers/filter-items.js" xlink:title="filter&#45;items.js">
<path fill="#ccffcc" stroke="black" d="M270.28,-73.3C270.28,-73.3 215.7,-73.3 215.7,-73.3 212.6,-73.3 209.5,-70.2 209.5,-67.1 209.5,-67.1 209.5,-60.9 209.5,-60.9 209.5,-57.8 212.6,-54.7 215.7,-54.7 215.7,-54.7 270.28,-54.7 270.28,-54.7 273.38,-54.7 276.48,-57.8 276.48,-60.9 276.48,-60.9 276.48,-67.1 276.48,-67.1 276.48,-70.2 273.38,-73.3 270.28,-73.3"/>
<text text-anchor="middle" x="242.99" y="-61.3" font-family="Helvetica,sans-Serif" font-size="9.00">filter&#45;items.js</text>
</a>
</g>
</g>
<!-- src/handlers/remove&#45;item.js -->
<g id="node7" class="node">
<title>src/handlers/remove&#45;item.js</title>
<g id="a_node7"><a xlink:href="../src/handlers/remove-item.js" xlink:title="remove&#45;item.js">
<path fill="#ffffcc" stroke="black" d="M274.28,-42.3C274.28,-42.3 211.7,-42.3 211.7,-42.3 208.6,-42.3 205.5,-39.2 205.5,-36.1 205.5,-36.1 205.5,-29.9 205.5,-29.9 205.5,-26.8 208.6,-23.7 211.7,-23.7 211.7,-23.7 274.28,-23.7 274.28,-23.7 277.38,-23.7 280.48,-26.8 280.48,-29.9 280.48,-29.9 280.48,-36.1 280.48,-36.1 280.48,-39.2 277.38,-42.3 274.28,-42.3"/>
<text text-anchor="middle" x="242.99" y="-30.3" font-family="Helvetica,sans-Serif" font-size="9.00">remove&#45;item.js</text>
</a>
</g>
</g>
<!-- src/handlers/remove&#45;item.js&#45;&gt;src/components/list.js -->
<g id="edge4" class="edge">
<title>src/handlers/remove&#45;item.js&#45;&gt;src/components/list.js</title>
<path fill="none" stroke="#000000" stroke-width="2" stroke-opacity="0.200000" d="M280.67,-34.7C286.49,-34.97 292.47,-35.24 298.17,-35.51"/>
<polygon fill="#000000" fill-opacity="0.200000" stroke="#000000" stroke-width="2" stroke-opacity="0.200000" points="298.15,-37.61 304.24,-35.79 298.34,-33.41 298.15,-37.61"/>
</g>
<!-- src/handlers/remove&#45;item.js&#45;&gt;src/data.js -->
<g id="edge5" class="edge">
<title>src/handlers/remove&#45;item.js&#45;&gt;src/data.js</title>
<path fill="none" stroke="#000000" stroke-width="2" stroke-opacity="0.200000" d="M279.89,-42.34C283.06,-44.18 286.01,-46.37 288.49,-49 297.08,-58.1 288.33,-66.5 296.49,-76 297.32,-76.97 298.21,-77.88 299.17,-78.74"/>
<polygon fill="#000000" fill-opacity="0.200000" stroke="#000000" stroke-width="2" stroke-opacity="0.200000" points="298.28,-80.69 304.34,-82.62 300.8,-77.33 298.28,-80.69"/>
</g>
<!-- src/init/index.js -->
<g id="node8" class="node">
<title>src/init/index.js</title>
<g id="a_node8"><a xlink:href="../src/init/index.js" xlink:title="index.js">
<path fill="#ffffcc" stroke="black" d="M74.05,-99.3C74.05,-99.3 32.45,-99.3 32.45,-99.3 29.35,-99.3 26.25,-96.2 26.25,-93.1 26.25,-93.1 26.25,-86.9 26.25,-86.9 26.25,-83.8 29.35,-80.7 32.45,-80.7 32.45,-80.7 74.05,-80.7 74.05,-80.7 77.15,-80.7 80.25,-83.8 80.25,-86.9 80.25,-86.9 80.25,-93.1 80.25,-93.1 80.25,-96.2 77.15,-99.3 74.05,-99.3"/>
<text text-anchor="middle" x="53.25" y="-87.3" font-family="Helvetica,sans-Serif" font-size="9.00">index.js</text>
</a>
</g>
</g>
<!-- src/listeners/add&#45;item.js -->
<g id="node9" class="node">
<title>src/listeners/add&#45;item.js</title>
<g id="a_node9"><a xlink:href="../src/listeners/add-item.js" xlink:title="add&#45;item.js">
<path fill="#ffffcc" stroke="black" d="M167.8,-104.3C167.8,-104.3 120.2,-104.3 120.2,-104.3 117.1,-104.3 114,-101.2 114,-98.1 114,-98.1 114,-91.9 114,-91.9 114,-88.8 117.1,-85.7 120.2,-85.7 120.2,-85.7 167.8,-85.7 167.8,-85.7 170.9,-85.7 174,-88.8 174,-91.9 174,-91.9 174,-98.1 174,-98.1 174,-101.2 170.9,-104.3 167.8,-104.3"/>
<text text-anchor="middle" x="144" y="-92.3" font-family="Helvetica,sans-Serif" font-size="9.00">add&#45;item.js</text>
</a>
</g>
</g>
<!-- src/init/index.js&#45;&gt;src/listeners/add&#45;item.js -->
<g id="edge6" class="edge">
<title>src/init/index.js&#45;&gt;src/listeners/add&#45;item.js</title>
<path fill="none" stroke="#000000" stroke-width="2" stroke-opacity="0.200000" d="M80.4,-91.47C88.95,-91.96 98.61,-92.5 107.72,-93.01"/>
<polygon fill="#000000" fill-opacity="0.200000" stroke="#000000" stroke-width="2" stroke-opacity="0.200000" points="107.82,-95.12 113.93,-93.36 108.06,-90.93 107.82,-95.12"/>
</g>
<!-- src/listeners/filter&#45;items.js -->
<g id="node10" class="node">
<title>src/listeners/filter&#45;items.js</title>
<g id="a_node10"><a xlink:href="../src/listeners/filter-items.js" xlink:title="filter&#45;items.js">
<path fill="#ffffcc" stroke="black" d="M171.28,-73.3C171.28,-73.3 116.71,-73.3 116.71,-73.3 113.61,-73.3 110.51,-70.2 110.51,-67.1 110.51,-67.1 110.51,-60.9 110.51,-60.9 110.51,-57.8 113.61,-54.7 116.71,-54.7 116.71,-54.7 171.28,-54.7 171.28,-54.7 174.39,-54.7 177.49,-57.8 177.49,-60.9 177.49,-60.9 177.49,-67.1 177.49,-67.1 177.49,-70.2 174.39,-73.3 171.28,-73.3"/>
<text text-anchor="middle" x="144" y="-61.3" font-family="Helvetica,sans-Serif" font-size="9.00">filter&#45;items.js</text>
</a>
</g>
</g>
<!-- src/init/index.js&#45;&gt;src/listeners/filter&#45;items.js -->
<g id="edge7" class="edge">
<title>src/init/index.js&#45;&gt;src/listeners/filter&#45;items.js</title>
<path fill="none" stroke="#000000" stroke-width="2" stroke-opacity="0.200000" d="M80.4,-82.34C88.06,-80.1 96.59,-77.59 104.84,-75.18"/>
<polygon fill="#000000" fill-opacity="0.200000" stroke="#000000" stroke-width="2" stroke-opacity="0.200000" points="105.9,-77.06 111.07,-73.35 104.72,-73.03 105.9,-77.06"/>
</g>
<!-- src/listeners/remove&#45;item.js -->
<g id="node11" class="node">
<title>src/listeners/remove&#45;item.js</title>
<g id="a_node11"><a xlink:href="../src/listeners/remove-item.js" xlink:title="remove&#45;item.js">
<path fill="#ffffcc" stroke="black" d="M175.29,-42.3C175.29,-42.3 112.7,-42.3 112.7,-42.3 109.6,-42.3 106.5,-39.2 106.5,-36.1 106.5,-36.1 106.5,-29.9 106.5,-29.9 106.5,-26.8 109.6,-23.7 112.7,-23.7 112.7,-23.7 175.29,-23.7 175.29,-23.7 178.39,-23.7 181.49,-26.8 181.49,-29.9 181.49,-29.9 181.49,-36.1 181.49,-36.1 181.49,-39.2 178.39,-42.3 175.29,-42.3"/>
<text text-anchor="middle" x="144" y="-30.3" font-family="Helvetica,sans-Serif" font-size="9.00">remove&#45;item.js</text>
</a>
</g>
</g>
<!-- src/init/index.js&#45;&gt;src/listeners/remove&#45;item.js -->
<g id="edge8" class="edge">
<title>src/init/index.js&#45;&gt;src/listeners/remove&#45;item.js</title>
<path fill="none" stroke="#000000" stroke-width="2" stroke-opacity="0.200000" d="M80.27,-84.13C84.08,-82.35 87.67,-80.03 90.5,-77 99.34,-67.55 89.66,-58.45 98.5,-49 99.58,-47.85 100.75,-46.77 101.99,-45.78"/>
<polygon fill="#000000" fill-opacity="0.200000" stroke="#000000" stroke-width="2" stroke-opacity="0.200000" points="103.29,-47.43 107.07,-42.32 100.93,-43.96 103.29,-47.43"/>
</g>
<!-- src/listeners/add&#45;item.js&#45;&gt;src/handlers/add&#45;item.js -->
<g id="edge9" class="edge">
<title>src/listeners/add&#45;item.js&#45;&gt;src/handlers/add&#45;item.js</title>
<path fill="none" stroke="#000000" stroke-width="2" stroke-opacity="0.200000" d="M174.1,-95C184.36,-95 196.01,-95 206.73,-95"/>
<polygon fill="#000000" fill-opacity="0.200000" stroke="#000000" stroke-width="2" stroke-opacity="0.200000" points="206.91,-97.1 212.91,-95 206.91,-92.9 206.91,-97.1"/>
</g>
<!-- src/schema.js -->
<g id="node12" class="node">
<title>src/schema.js</title>
<g id="a_node12"><a xlink:href="../src/schema.js" xlink:title="schema.js">
<path fill="#ccffcc" stroke="black" d="M75.06,-34.3C75.06,-34.3 31.44,-34.3 31.44,-34.3 28.34,-34.3 25.24,-31.2 25.24,-28.1 25.24,-28.1 25.24,-21.9 25.24,-21.9 25.24,-18.8 28.34,-15.7 31.44,-15.7 31.44,-15.7 75.06,-15.7 75.06,-15.7 78.16,-15.7 81.26,-18.8 81.26,-21.9 81.26,-21.9 81.26,-28.1 81.26,-28.1 81.26,-31.2 78.16,-34.3 75.06,-34.3"/>
<text text-anchor="middle" x="53.25" y="-22.3" font-family="Helvetica,sans-Serif" font-size="9.00">schema.js</text>
</a>
</g>
</g>
</g>
</svg>
