<?xml version="1.0" encoding="UTF-8" standalone="no"?>
<!DOCTYPE svg PUBLIC "-//W3C//DTD SVG 1.1//EN"
 "http://www.w3.org/Graphics/SVG/1.1/DTD/svg11.dtd">
<!-- Generated by graphviz version 2.44.0 (20200408.0750)
 -->
<!-- Title: dependency&#45;cruiser output Pages: 1 -->
<svg width="512pt" height="266pt"
 viewBox="0.00 0.00 511.99 266.00" xmlns="http://www.w3.org/2000/svg" xmlns:xlink="http://www.w3.org/1999/xlink">
<g id="graph0" class="graph" transform="scale(1 1) rotate(0) translate(4 262)">
<title>dependency&#45;cruiser output</title>
<polygon fill="white" stroke="transparent" points="-4,4 -4,-262 507.99,-262 507.99,4 -4,4"/>
<g id="clust1" class="cluster">
<title>cluster_src</title>
<path fill="#ffffff" stroke="black" stroke-width="2" d="M20,-8C20,-8 483.99,-8 483.99,-8 489.99,-8 495.99,-14 495.99,-20 495.99,-20 495.99,-238 495.99,-238 495.99,-244 489.99,-250 483.99,-250 483.99,-250 20,-250 20,-250 14,-250 8,-244 8,-238 8,-238 8,-20 8,-20 8,-14 14,-8 20,-8"/>
<text text-anchor="middle" x="251.99" y="-237.9" font-family="Helvetica,sans-Serif" font-weight="bold" font-size="9.00">src</text>
</g>
<g id="clust2" class="cluster">
<title>cluster_src/components</title>
<path fill="#ffffff" stroke="black" stroke-width="2" d="M28,-139C28,-139 283.02,-139 283.02,-139 289.02,-139 295.02,-145 295.02,-151 295.02,-151 295.02,-211 295.02,-211 295.02,-217 289.02,-223 283.02,-223 283.02,-223 28,-223 28,-223 22,-223 16,-217 16,-211 16,-211 16,-151 16,-151 16,-145 22,-139 28,-139"/>
<text text-anchor="middle" x="155.51" y="-210.9" font-family="Helvetica,sans-Serif" font-weight="bold" font-size="9.00">components</text>
</g>
<g id="clust3" class="cluster">
<title>cluster_src/handlers</title>
<path fill="#ffffff" stroke="black" stroke-width="2" d="M320.01,-92C320.01,-92 475.99,-92 475.99,-92 481.99,-92 487.99,-98 487.99,-104 487.99,-104 487.99,-195 487.99,-195 487.99,-201 481.99,-207 475.99,-207 475.99,-207 320.01,-207 320.01,-207 314.01,-207 308.01,-201 308.01,-195 308.01,-195 308.01,-104 308.01,-104 308.01,-98 314.01,-92 320.01,-92"/>
<text text-anchor="middle" x="398" y="-194.9" font-family="Helvetica,sans-Serif" font-weight="bold" font-size="9.00">handlers</text>
</g>
<g id="clust4" class="cluster">
<title>cluster_src/init</title>
<path fill="#ffffff" stroke="black" stroke-width="2" d="M134.75,-47C134.75,-47 180.75,-47 180.75,-47 186.75,-47 192.75,-53 192.75,-59 192.75,-59 192.75,-88 192.75,-88 192.75,-94 186.75,-100 180.75,-100 180.75,-100 134.75,-100 134.75,-100 128.75,-100 122.75,-94 122.75,-88 122.75,-88 122.75,-59 122.75,-59 122.75,-53 128.75,-47 134.75,-47"/>
<text text-anchor="middle" x="157.75" y="-87.9" font-family="Helvetica,sans-Serif" font-weight="bold" font-size="9.00">init</text>
</g>
<g id="clust5" class="cluster">
<title>cluster_src/listeners</title>
<path fill="#ffffff" stroke="black" stroke-width="2" d="M221.01,-16C221.01,-16 288.01,-16 288.01,-16 294.01,-16 300.01,-22 300.01,-28 300.01,-28 300.01,-119 300.01,-119 300.01,-125 294.01,-131 288.01,-131 288.01,-131 221.01,-131 221.01,-131 215.01,-131 209.01,-125 209.01,-119 209.01,-119 209.01,-28 209.01,-28 209.01,-22 215.01,-16 221.01,-16"/>
<text text-anchor="middle" x="254.51" y="-118.9" font-family="Helvetica,sans-Serif" font-weight="bold" font-size="9.00">listeners</text>
</g>
<!-- src/DOMstudies.js -->
<g id="node1" class="node">
<title>src/DOMstudies.js</title>
<g id="a_node1"><a xlink:href="../src/DOMstudies.js" xlink:title="DOMstudies.js">
<path fill="#ccffcc" stroke="black" d="M93.55,-114.3C93.55,-114.3 31.95,-114.3 31.95,-114.3 28.85,-114.3 25.75,-111.2 25.75,-108.1 25.75,-108.1 25.75,-101.9 25.75,-101.9 25.75,-98.8 28.85,-95.7 31.95,-95.7 31.95,-95.7 93.55,-95.7 93.55,-95.7 96.65,-95.7 99.75,-98.8 99.75,-101.9 99.75,-101.9 99.75,-108.1 99.75,-108.1 99.75,-111.2 96.65,-114.3 93.55,-114.3"/>
<text text-anchor="middle" x="62.75" y="-102.3" font-family="Helvetica,sans-Serif" font-size="9.00">DOMstudies.js</text>
</a>
</g>
</g>
<!-- src/components/delete&#45;btn.js -->
<g id="node2" class="node">
<title>src/components/delete&#45;btn.js</title>
<g id="a_node2"><a xlink:href="../src/components/delete-btn.js" xlink:title="delete&#45;btn.js">
<path fill="#ffffcc" stroke="black" d="M280.82,-180.3C280.82,-180.3 228.2,-180.3 228.2,-180.3 225.1,-180.3 222,-177.2 222,-174.1 222,-174.1 222,-167.9 222,-167.9 222,-164.8 225.1,-161.7 228.2,-161.7 228.2,-161.7 280.82,-161.7 280.82,-161.7 283.92,-161.7 287.02,-164.8 287.02,-167.9 287.02,-167.9 287.02,-174.1 287.02,-174.1 287.02,-177.2 283.92,-180.3 280.82,-180.3"/>
<text text-anchor="middle" x="254.51" y="-168.3" font-family="Helvetica,sans-Serif" font-size="9.00">delete&#45;btn.js</text>
</a>
</g>
</g>
<!-- src/handlers/remove&#45;item.js -->
<g id="node3" class="node">
<title>src/handlers/remove&#45;item.js</title>
<g id="a_node3"><a xlink:href="../src/handlers/remove-item.js" xlink:title="remove&#45;item.js">
<path fill="#ffffcc" stroke="black" d="M384.8,-180.3C384.8,-180.3 322.21,-180.3 322.21,-180.3 319.11,-180.3 316.01,-177.2 316.01,-174.1 316.01,-174.1 316.01,-167.9 316.01,-167.9 316.01,-164.8 319.11,-161.7 322.21,-161.7 322.21,-161.7 384.8,-161.7 384.8,-161.7 387.9,-161.7 391,-164.8 391,-167.9 391,-167.9 391,-174.1 391,-174.1 391,-177.2 387.9,-180.3 384.8,-180.3"/>
<text text-anchor="middle" x="353.5" y="-168.3" font-family="Helvetica,sans-Serif" font-size="9.00">remove&#45;item.js</text>
</a>
</g>
</g>
<!-- src/components/delete&#45;btn.js&#45;&gt;src/handlers/remove&#45;item.js -->
<g id="edge1" class="edge">
<title>src/components/delete&#45;btn.js&#45;&gt;src/handlers/remove&#45;item.js</title>
<path fill="none" stroke="#000000" stroke-width="2" stroke-opacity="0.200000" d="M287.27,-171C292,-171 296.97,-171 301.97,-171"/>
<polygon fill="#000000" fill-opacity="0.200000" stroke="#000000" stroke-width="2" stroke-opacity="0.200000" points="309.96,-173.1 315.96,-171 309.96,-168.9 309.96,-173.1"/>
<polyline fill="none" stroke="#000000" stroke-width="2" stroke-opacity="0.200000" points="309.96,-171 306.96,-171 "/>
<ellipse fill="none" stroke="#000000" stroke-width="2" stroke-opacity="0.200000" cx="304.56" cy="-171" rx="2.4" ry="2.4"/>
</g>
<!-- src/data.js -->
<g id="node8" class="node">
<title>src/data.js</title>
<g id="a_node8"><a xlink:href="../src/data.js" xlink:title="data.js">
<path fill="#ffffcc" stroke="black" d="M462.79,-84.3C462.79,-84.3 421.2,-84.3 421.2,-84.3 418.1,-84.3 414.99,-81.2 414.99,-78.1 414.99,-78.1 414.99,-71.9 414.99,-71.9 414.99,-68.8 418.1,-65.7 421.2,-65.7 421.2,-65.7 462.79,-65.7 462.79,-65.7 465.89,-65.7 468.99,-68.8 468.99,-71.9 468.99,-71.9 468.99,-78.1 468.99,-78.1 468.99,-81.2 465.89,-84.3 462.79,-84.3"/>
<text text-anchor="middle" x="441.99" y="-72.3" font-family="Helvetica,sans-Serif" font-size="9.00">data.js</text>
</a>
</g>
</g>
<!-- src/handlers/remove&#45;item.js&#45;&gt;src/data.js -->
<g id="edge9" class="edge">
<title>src/handlers/remove&#45;item.js&#45;&gt;src/data.js</title>
<path fill="none" stroke="#000000" stroke-width="2" stroke-opacity="0.200000" d="M383.52,-161.61C386.34,-159.77 388.92,-157.59 391,-155 409.71,-131.68 384.7,-111.83 404,-89 405.65,-87.05 407.59,-85.38 409.72,-83.93"/>
<polygon fill="#000000" fill-opacity="0.200000" stroke="#000000" stroke-width="2" stroke-opacity="0.200000" points="410.76,-85.75 414.94,-80.97 408.69,-82.1 410.76,-85.75"/>
</g>
<!-- src/handlers/re&#45;render&#45;list.js -->
<g id="node10" class="node">
<title>src/handlers/re&#45;render&#45;list.js</title>
<g id="a_node10"><a xlink:href="../src/handlers/re-render-list.js" xlink:title="re&#45;render&#45;list.js">
<path fill="#ffffcc" stroke="black" d="M473.78,-180.3C473.78,-180.3 410.21,-180.3 410.21,-180.3 407.11,-180.3 404.01,-177.2 404.01,-174.1 404.01,-174.1 404.01,-167.9 404.01,-167.9 404.01,-164.8 407.11,-161.7 410.21,-161.7 410.21,-161.7 473.78,-161.7 473.78,-161.7 476.88,-161.7 479.98,-164.8 479.98,-167.9 479.98,-167.9 479.98,-174.1 479.98,-174.1 479.98,-177.2 476.88,-180.3 473.78,-180.3"/>
<text text-anchor="middle" x="441.99" y="-168.3" font-family="Helvetica,sans-Serif" font-size="9.00">re&#45;render&#45;list.js</text>
</a>
</g>
</g>
<!-- src/handlers/remove&#45;item.js&#45;&gt;src/handlers/re&#45;render&#45;list.js -->
<g id="edge10" class="edge">
<title>src/handlers/remove&#45;item.js&#45;&gt;src/handlers/re&#45;render&#45;list.js</title>
<path fill="none" stroke="#000000" stroke-width="2" stroke-opacity="0.200000" d="M391.18,-171C391.32,-171 391.45,-171 391.58,-171"/>
<polygon fill="#000000" fill-opacity="0.200000" stroke="#000000" stroke-width="2" stroke-opacity="0.200000" points="397.98,-173.1 403.98,-171 397.98,-168.9 397.98,-173.1"/>
<polyline fill="none" stroke="#000000" stroke-width="2" stroke-opacity="0.200000" points="397.98,-171 394.98,-171 "/>
<ellipse fill="none" stroke="#000000" stroke-width="2" stroke-opacity="0.200000" cx="392.58" cy="-171" rx="2.4" ry="2.4"/>
</g>
<!-- src/components/delete&#45;btn.spec.js -->
<g id="node4" class="node">
<title>src/components/delete&#45;btn.spec.js</title>
<g id="a_node4"><a xlink:href="../src/components/delete-btn.spec.js" xlink:title="delete&#45;btn.spec.js">
<path fill="#ffffcc" stroke="black" d="M194.57,-196.3C194.57,-196.3 120.93,-196.3 120.93,-196.3 117.83,-196.3 114.73,-193.2 114.73,-190.1 114.73,-190.1 114.73,-183.9 114.73,-183.9 114.73,-180.8 117.83,-177.7 120.93,-177.7 120.93,-177.7 194.57,-177.7 194.57,-177.7 197.67,-177.7 200.77,-180.8 200.77,-183.9 200.77,-183.9 200.77,-190.1 200.77,-190.1 200.77,-193.2 197.67,-196.3 194.57,-196.3"/>
<text text-anchor="middle" x="157.75" y="-184.3" font-family="Helvetica,sans-Serif" font-size="9.00">delete&#45;btn.spec.js</text>
</a>
</g>
</g>
<!-- src/components/delete&#45;btn.spec.js&#45;&gt;src/components/delete&#45;btn.js -->
<g id="edge2" class="edge">
<title>src/components/delete&#45;btn.spec.js&#45;&gt;src/components/delete&#45;btn.js</title>
<path fill="none" stroke="#000000" stroke-width="2" stroke-opacity="0.200000" d="M200.87,-179.89C205.8,-179.06 210.81,-178.21 215.69,-177.39"/>
<polygon fill="#000000" fill-opacity="0.200000" stroke="#000000" stroke-width="2" stroke-opacity="0.200000" points="216.2,-179.43 221.77,-176.36 215.5,-175.29 216.2,-179.43"/>
</g>
<!-- src/components/list&#45;item.js -->
<g id="node5" class="node">
<title>src/components/list&#45;item.js</title>
<g id="a_node5"><a xlink:href="../src/components/list-item.js" xlink:title="list&#45;item.js">
<path fill="#ffffcc" stroke="black" d="M179.54,-165.3C179.54,-165.3 135.97,-165.3 135.97,-165.3 132.87,-165.3 129.77,-162.2 129.77,-159.1 129.77,-159.1 129.77,-152.9 129.77,-152.9 129.77,-149.8 132.87,-146.7 135.97,-146.7 135.97,-146.7 179.54,-146.7 179.54,-146.7 182.64,-146.7 185.74,-149.8 185.74,-152.9 185.74,-152.9 185.74,-159.1 185.74,-159.1 185.74,-162.2 182.64,-165.3 179.54,-165.3"/>
<text text-anchor="middle" x="157.75" y="-153.3" font-family="Helvetica,sans-Serif" font-size="9.00">list&#45;item.js</text>
</a>
</g>
</g>
<!-- src/components/list&#45;item.js&#45;&gt;src/components/delete&#45;btn.js -->
<g id="edge3" class="edge">
<title>src/components/list&#45;item.js&#45;&gt;src/components/delete&#45;btn.js</title>
<path fill="none" stroke="#000000" stroke-width="2" stroke-opacity="0.200000" d="M185.91,-160.3C192.86,-161.4 200.53,-162.61 208.13,-163.82"/>
<polygon fill="#000000" fill-opacity="0.200000" stroke="#000000" stroke-width="2" stroke-opacity="0.200000" points="215.75,-167.15 222,-166.01 216.41,-163 215.75,-167.15"/>
<polyline fill="none" stroke="#000000" stroke-width="2" stroke-opacity="0.200000" points="216.08,-165.07 213.11,-164.61 "/>
<ellipse fill="none" stroke="#000000" stroke-width="2" stroke-opacity="0.200000" cx="210.74" cy="-164.23" rx="2.4" ry="2.4"/>
</g>
<!-- src/components/list&#45;item.spec.js -->
<g id="node6" class="node">
<title>src/components/list&#45;item.spec.js</title>
<g id="a_node6"><a xlink:href="../src/components/list-item.spec.js" xlink:title="list&#45;item.spec.js">
<path fill="#ffffcc" stroke="black" d="M95.54,-165.3C95.54,-165.3 29.95,-165.3 29.95,-165.3 26.85,-165.3 23.75,-162.2 23.75,-159.1 23.75,-159.1 23.75,-152.9 23.75,-152.9 23.75,-149.8 26.85,-146.7 29.95,-146.7 29.95,-146.7 95.54,-146.7 95.54,-146.7 98.64,-146.7 101.74,-149.8 101.74,-152.9 101.74,-152.9 101.74,-159.1 101.74,-159.1 101.74,-162.2 98.64,-165.3 95.54,-165.3"/>
<text text-anchor="middle" x="62.75" y="-153.3" font-family="Helvetica,sans-Serif" font-size="9.00">list&#45;item.spec.js</text>
</a>
</g>
</g>
<!-- src/components/list&#45;item.spec.js&#45;&gt;src/components/list&#45;item.js -->
<g id="edge4" class="edge">
<title>src/components/list&#45;item.spec.js&#45;&gt;src/components/list&#45;item.js</title>
<path fill="none" stroke="#000000" stroke-width="2" stroke-opacity="0.200000" d="M101.58,-156C108.74,-156 116.18,-156 123.2,-156"/>
<polygon fill="#000000" fill-opacity="0.200000" stroke="#000000" stroke-width="2" stroke-opacity="0.200000" points="123.51,-158.1 129.51,-156 123.51,-153.9 123.51,-158.1"/>
</g>
<!-- src/components/list.js -->
<g id="node7" class="node">
<title>src/components/list.js</title>
<g id="a_node7"><a xlink:href="../src/components/list.js" xlink:title="list.js">
<path fill="#ffffcc" stroke="black" d="M83.55,-196.3C83.55,-196.3 41.95,-196.3 41.95,-196.3 38.85,-196.3 35.75,-193.2 35.75,-190.1 35.75,-190.1 35.75,-183.9 35.75,-183.9 35.75,-180.8 38.85,-177.7 41.95,-177.7 41.95,-177.7 83.55,-177.7 83.55,-177.7 86.65,-177.7 89.75,-180.8 89.75,-183.9 89.75,-183.9 89.75,-190.1 89.75,-190.1 89.75,-193.2 86.65,-196.3 83.55,-196.3"/>
<text text-anchor="middle" x="62.75" y="-184.3" font-family="Helvetica,sans-Serif" font-size="9.00">list.js</text>
</a>
</g>
</g>
<!-- src/components/list.js&#45;&gt;src/components/list&#45;item.js -->
<g id="edge5" class="edge">
<title>src/components/list.js&#45;&gt;src/components/list&#45;item.js</title>
<path fill="none" stroke="#000000" stroke-width="2" stroke-opacity="0.200000" d="M90.15,-178.2C98.35,-175.47 107.59,-172.39 116.51,-169.41"/>
<polygon fill="#000000" fill-opacity="0.200000" stroke="#000000" stroke-width="2" stroke-opacity="0.200000" points="124.61,-168.93 129.64,-165.04 123.28,-164.94 124.61,-168.93"/>
<polyline fill="none" stroke="#000000" stroke-width="2" stroke-opacity="0.200000" points="123.95,-166.94 121.1,-167.88 "/>
<ellipse fill="none" stroke="#000000" stroke-width="2" stroke-opacity="0.200000" cx="118.82" cy="-168.64" rx="2.4" ry="2.4"/>
</g>
<!-- src/handlers/add&#45;item.js -->
<g id="node9" class="node">
<title>src/handlers/add&#45;item.js</title>
<g id="a_node9"><a xlink:href="../src/handlers/add-item.js" xlink:title="add&#45;item.js">
<path fill="#ffffcc" stroke="black" d="M377.3,-149.3C377.3,-149.3 329.7,-149.3 329.7,-149.3 326.6,-149.3 323.5,-146.2 323.5,-143.1 323.5,-143.1 323.5,-136.9 323.5,-136.9 323.5,-133.8 326.6,-130.7 329.7,-130.7 329.7,-130.7 377.3,-130.7 377.3,-130.7 380.4,-130.7 383.5,-133.8 383.5,-136.9 383.5,-136.9 383.5,-143.1 383.5,-143.1 383.5,-146.2 380.4,-149.3 377.3,-149.3"/>
<text text-anchor="middle" x="353.5" y="-137.3" font-family="Helvetica,sans-Serif" font-size="9.00">add&#45;item.js</text>
</a>
</g>
</g>
<!-- src/handlers/add&#45;item.js&#45;&gt;src/data.js -->
<g id="edge6" class="edge">
<title>src/handlers/add&#45;item.js&#45;&gt;src/data.js</title>
<path fill="none" stroke="#000000" stroke-width="2" stroke-opacity="0.200000" d="M382.39,-130.7C385.56,-128.83 388.53,-126.62 391,-124 402.39,-111.93 392.3,-100.77 404,-89 405.59,-87.4 407.39,-85.97 409.31,-84.71"/>
<polygon fill="#000000" fill-opacity="0.200000" stroke="#000000" stroke-width="2" stroke-opacity="0.200000" points="410.42,-86.5 414.63,-81.73 408.37,-82.83 410.42,-86.5"/>
</g>
<!-- src/handlers/add&#45;item.js&#45;&gt;src/handlers/re&#45;render&#45;list.js -->
<g id="edge7" class="edge">
<title>src/handlers/add&#45;item.js&#45;&gt;src/handlers/re&#45;render&#45;list.js</title>
<path fill="none" stroke="#000000" stroke-width="2" stroke-opacity="0.200000" d="M379.92,-149.3C387.65,-152.11 396.17,-155.2 404,-158 405.46,-158.52 406.95,-159.05 408.46,-159.59"/>
<polygon fill="#000000" fill-opacity="0.200000" stroke="#000000" stroke-width="2" stroke-opacity="0.200000" points="407.95,-161.64 414.31,-161.66 409.36,-157.68 407.95,-161.64"/>
</g>
<!-- src/handlers/re&#45;render&#45;list.js&#45;&gt;src/components/list.js -->
<g id="edge8" class="edge">
<title>src/handlers/re&#45;render&#45;list.js&#45;&gt;src/components/list.js</title>
<path fill="none" stroke="#000000" stroke-width="2" stroke-opacity="0.200000" d="M413.48,-180.37C406.24,-182.53 398.39,-184.6 391,-186 270.07,-208.98 236.32,-219.63 114.49,-202 110.79,-201.46 106.97,-200.72 103.18,-199.84"/>
<polygon fill="#000000" fill-opacity="0.200000" stroke="#000000" stroke-width="2" stroke-opacity="0.200000" points="96.1,-195.77 89.77,-196.25 95.02,-199.83 96.1,-195.77"/>
<polyline fill="none" stroke="#000000" stroke-width="2" stroke-opacity="0.200000" points="95.56,-197.8 98.46,-198.58 "/>
<ellipse fill="none" stroke="#000000" stroke-width="2" stroke-opacity="0.200000" cx="100.78" cy="-199.2" rx="2.4" ry="2.4"/>
</g>
<!-- src/handlers/filter&#45;items.js -->
<g id="node11" class="node">
<title>src/handlers/filter&#45;items.js</title>
<g id="a_node11"><a xlink:href="../src/handlers/filter-items.js" xlink:title="filter&#45;items.js">
<path fill="#ccffcc" stroke="black" d="M380.79,-118.3C380.79,-118.3 326.22,-118.3 326.22,-118.3 323.11,-118.3 320.01,-115.2 320.01,-112.1 320.01,-112.1 320.01,-105.9 320.01,-105.9 320.01,-102.8 323.11,-99.7 326.22,-99.7 326.22,-99.7 380.79,-99.7 380.79,-99.7 383.89,-99.7 386.99,-102.8 386.99,-105.9 386.99,-105.9 386.99,-112.1 386.99,-112.1 386.99,-115.2 383.89,-118.3 380.79,-118.3"/>
<text text-anchor="middle" x="353.5" y="-106.3" font-family="Helvetica,sans-Serif" font-size="9.00">filter&#45;items.js</text>
</a>
</g>
</g>
<!-- src/init/index.js -->
<g id="node12" class="node">
<title>src/init/index.js</title>
<g id="a_node12"><a xlink:href="../src/init/index.js" xlink:title="index.js">
<path fill="#ffffcc" stroke="black" d="M178.55,-73.3C178.55,-73.3 136.95,-73.3 136.95,-73.3 133.85,-73.3 130.75,-70.2 130.75,-67.1 130.75,-67.1 130.75,-60.9 130.75,-60.9 130.75,-57.8 133.85,-54.7 136.95,-54.7 136.95,-54.7 178.55,-54.7 178.55,-54.7 181.65,-54.7 184.75,-57.8 184.75,-60.9 184.75,-60.9 184.75,-67.1 184.75,-67.1 184.75,-70.2 181.65,-73.3 178.55,-73.3"/>
<text text-anchor="middle" x="157.75" y="-61.3" font-family="Helvetica,sans-Serif" font-size="9.00">index.js</text>
</a>
</g>
</g>
<!-- src/listeners/add&#45;item.js -->
<g id="node13" class="node">
<title>src/listeners/add&#45;item.js</title>
<g id="a_node13"><a xlink:href="../src/listeners/add-item.js" xlink:title="add&#45;item.js">
<path fill="#ffffcc" stroke="black" d="M278.31,-73.3C278.31,-73.3 230.71,-73.3 230.71,-73.3 227.61,-73.3 224.51,-70.2 224.51,-67.1 224.51,-67.1 224.51,-60.9 224.51,-60.9 224.51,-57.8 227.61,-54.7 230.71,-54.7 230.71,-54.7 278.31,-54.7 278.31,-54.7 281.41,-54.7 284.51,-57.8 284.51,-60.9 284.51,-60.9 284.51,-67.1 284.51,-67.1 284.51,-70.2 281.41,-73.3 278.31,-73.3"/>
<text text-anchor="middle" x="254.51" y="-61.3" font-family="Helvetica,sans-Serif" font-size="9.00">add&#45;item.js</text>
</a>
</g>
</g>
<!-- src/init/index.js&#45;&gt;src/listeners/add&#45;item.js -->
<g id="edge11" class="edge">
<title>src/init/index.js&#45;&gt;src/listeners/add&#45;item.js</title>
<path fill="none" stroke="#000000" stroke-width="2" stroke-opacity="0.200000" d="M184.9,-64C195.25,-64 207.31,-64 218.4,-64"/>
<polygon fill="#000000" fill-opacity="0.200000" stroke="#000000" stroke-width="2" stroke-opacity="0.200000" points="218.45,-66.1 224.45,-64 218.45,-61.9 218.45,-66.1"/>
</g>
<!-- src/listeners/filter&#45;items.js -->
<g id="node14" class="node">
<title>src/listeners/filter&#45;items.js</title>
<g id="a_node14"><a xlink:href="../src/listeners/filter-items.js" xlink:title="filter&#45;items.js">
<path fill="#ffffcc" stroke="black" d="M281.8,-42.3C281.8,-42.3 227.22,-42.3 227.22,-42.3 224.12,-42.3 221.02,-39.2 221.02,-36.1 221.02,-36.1 221.02,-29.9 221.02,-29.9 221.02,-26.8 224.12,-23.7 227.22,-23.7 227.22,-23.7 281.8,-23.7 281.8,-23.7 284.9,-23.7 288,-26.8 288,-29.9 288,-29.9 288,-36.1 288,-36.1 288,-39.2 284.9,-42.3 281.8,-42.3"/>
<text text-anchor="middle" x="254.51" y="-30.3" font-family="Helvetica,sans-Serif" font-size="9.00">filter&#45;items.js</text>
</a>
</g>
</g>
<!-- src/init/index.js&#45;&gt;src/listeners/filter&#45;items.js -->
<g id="edge12" class="edge">
<title>src/init/index.js&#45;&gt;src/listeners/filter&#45;items.js</title>
<path fill="none" stroke="#000000" stroke-width="2" stroke-opacity="0.200000" d="M184.9,-55.45C195.44,-52 207.75,-47.97 219.01,-44.29"/>
<polygon fill="#000000" fill-opacity="0.200000" stroke="#000000" stroke-width="2" stroke-opacity="0.200000" points="219.74,-46.26 224.79,-42.4 218.43,-42.27 219.74,-46.26"/>
</g>
<!-- src/listeners/remove&#45;item.js -->
<g id="node15" class="node">
<title>src/listeners/remove&#45;item.js</title>
<g id="a_node15"><a xlink:href="../src/listeners/remove-item.js" xlink:title="remove&#45;item.js">
<path fill="#ffffcc" stroke="black" d="M285.8,-104.3C285.8,-104.3 223.22,-104.3 223.22,-104.3 220.12,-104.3 217.02,-101.2 217.02,-98.1 217.02,-98.1 217.02,-91.9 217.02,-91.9 217.02,-88.8 220.12,-85.7 223.22,-85.7 223.22,-85.7 285.8,-85.7 285.8,-85.7 288.9,-85.7 292,-88.8 292,-91.9 292,-91.9 292,-98.1 292,-98.1 292,-101.2 288.9,-104.3 285.8,-104.3"/>
<text text-anchor="middle" x="254.51" y="-92.3" font-family="Helvetica,sans-Serif" font-size="9.00">remove&#45;item.js</text>
</a>
</g>
</g>
<!-- src/init/index.js&#45;&gt;src/listeners/remove&#45;item.js -->
<g id="edge13" class="edge">
<title>src/init/index.js&#45;&gt;src/listeners/remove&#45;item.js</title>
<path fill="none" stroke="#000000" stroke-width="2" stroke-opacity="0.200000" d="M184.9,-72.55C195.44,-76 207.75,-80.03 219.01,-83.71"/>
<polygon fill="#000000" fill-opacity="0.200000" stroke="#000000" stroke-width="2" stroke-opacity="0.200000" points="218.43,-85.73 224.79,-85.6 219.74,-81.74 218.43,-85.73"/>
</g>
<!-- src/listeners/add&#45;item.js&#45;&gt;src/handlers/add&#45;item.js -->
<g id="edge14" class="edge">
<title>src/listeners/add&#45;item.js&#45;&gt;src/handlers/add&#45;item.js</title>
<path fill="none" stroke="#000000" stroke-width="2" stroke-opacity="0.200000" d="M284.59,-69.55C290.41,-71.89 295.97,-75.24 300.01,-80 312.85,-95.17 295.16,-108.83 308.01,-124 310.72,-127.2 314.12,-129.76 317.82,-131.81"/>
<polygon fill="#000000" fill-opacity="0.200000" stroke="#000000" stroke-width="2" stroke-opacity="0.200000" points="317.1,-133.79 323.42,-134.45 318.9,-129.99 317.1,-133.79"/>
</g>
<!-- src/schema.js -->
<g id="node16" class="node">
<title>src/schema.js</title>
<g id="a_node16"><a xlink:href="../src/schema.js" xlink:title="schema.js">
<path fill="#ccffcc" stroke="black" d="M84.55,-67.3C84.55,-67.3 40.94,-67.3 40.94,-67.3 37.84,-67.3 34.74,-64.2 34.74,-61.1 34.74,-61.1 34.74,-54.9 34.74,-54.9 34.74,-51.8 37.84,-48.7 40.94,-48.7 40.94,-48.7 84.55,-48.7 84.55,-48.7 87.65,-48.7 90.75,-51.8 90.75,-54.9 90.75,-54.9 90.75,-61.1 90.75,-61.1 90.75,-64.2 87.65,-67.3 84.55,-67.3"/>
<text text-anchor="middle" x="62.75" y="-55.3" font-family="Helvetica,sans-Serif" font-size="9.00">schema.js</text>
</a>
</g>
</g>
</g>
</svg>
