<?xml version="1.0" encoding="UTF-8" standalone="no"?>
<!DOCTYPE svg PUBLIC "-//W3C//DTD SVG 1.1//EN"
 "http://www.w3.org/Graphics/SVG/1.1/DTD/svg11.dtd">
<!-- Generated by graphviz version 2.44.0 (20200408.0750)
 -->
<!-- Title: dependency&#45;cruiser output Pages: 1 -->
<svg width="681pt" height="200pt"
 viewBox="0.00 0.00 680.50 200.00" xmlns="http://www.w3.org/2000/svg" xmlns:xlink="http://www.w3.org/1999/xlink">
<g id="graph0" class="graph" transform="scale(1 1) rotate(0) translate(4 196)">
<title>dependency&#45;cruiser output</title>
<polygon fill="white" stroke="transparent" points="-4,4 -4,-196 676.5,-196 676.5,4 -4,4"/>
<g id="clust1" class="cluster">
<title>cluster_src</title>
<path fill="#ffffff" stroke="black" stroke-width="2" d="M20,-8C20,-8 652.5,-8 652.5,-8 658.5,-8 664.5,-14 664.5,-20 664.5,-20 664.5,-172 664.5,-172 664.5,-178 658.5,-184 652.5,-184 652.5,-184 20,-184 20,-184 14,-184 8,-178 8,-172 8,-172 8,-20 8,-20 8,-14 14,-8 20,-8"/>
<text text-anchor="middle" x="336.25" y="-171.9" font-family="Helvetica,sans-Serif" font-weight="bold" font-size="9.00">src</text>
</g>
<g id="clust2" class="cluster">
<title>cluster_src/components</title>
<path fill="#ffffff" stroke="black" stroke-width="2" d="M397.48,-44C397.48,-44 644.5,-44 644.5,-44 650.5,-44 656.5,-50 656.5,-56 656.5,-56 656.5,-116 656.5,-116 656.5,-122 650.5,-128 644.5,-128 644.5,-128 397.48,-128 397.48,-128 391.48,-128 385.48,-122 385.48,-116 385.48,-116 385.48,-56 385.48,-56 385.48,-50 391.48,-44 397.48,-44"/>
<text text-anchor="middle" x="520.99" y="-115.9" font-family="Helvetica,sans-Serif" font-weight="bold" font-size="9.00">components</text>
</g>
<g id="clust3" class="cluster">
<title>cluster_src/handlers</title>
<path fill="#ffffff" stroke="black" stroke-width="2" d="M209.49,-16C209.49,-16 365.48,-16 365.48,-16 371.48,-16 377.48,-22 377.48,-28 377.48,-28 377.48,-119 377.48,-119 377.48,-125 371.48,-131 365.48,-131 365.48,-131 209.49,-131 209.49,-131 203.49,-131 197.49,-125 197.49,-119 197.49,-119 197.49,-28 197.49,-28 197.49,-22 203.49,-16 209.49,-16"/>
<text text-anchor="middle" x="287.48" y="-118.9" font-family="Helvetica,sans-Serif" font-weight="bold" font-size="9.00">handlers</text>
</g>
<g id="clust4" class="cluster">
<title>cluster_src/init</title>
<path fill="#ffffff" stroke="black" stroke-width="2" d="M30.25,-73C30.25,-73 76.25,-73 76.25,-73 82.25,-73 88.25,-79 88.25,-85 88.25,-85 88.25,-114 88.25,-114 88.25,-120 82.25,-126 76.25,-126 76.25,-126 30.25,-126 30.25,-126 24.25,-126 18.25,-120 18.25,-114 18.25,-114 18.25,-85 18.25,-85 18.25,-79 24.25,-73 30.25,-73"/>
<text text-anchor="middle" x="53.25" y="-113.9" font-family="Helvetica,sans-Serif" font-weight="bold" font-size="9.00">init</text>
</g>
<g id="clust5" class="cluster">
<title>cluster_src/listeners</title>
<path fill="#ffffff" stroke="black" stroke-width="2" d="M110.5,-16C110.5,-16 177.49,-16 177.49,-16 183.49,-16 189.49,-22 189.49,-28 189.49,-28 189.49,-119 189.49,-119 189.49,-125 183.49,-131 177.49,-131 177.49,-131 110.5,-131 110.5,-131 104.5,-131 98.5,-125 98.5,-119 98.5,-119 98.5,-28 98.5,-28 98.5,-22 104.5,-16 110.5,-16"/>
<text text-anchor="middle" x="144" y="-118.9" font-family="Helvetica,sans-Serif" font-weight="bold" font-size="9.00">listeners</text>
</g>
<!-- src/DOMstudies.js -->
<g id="node1" class="node">
<title>src/DOMstudies.js</title>
<g id="a_node1"><a xlink:href="../src/DOMstudies.js" xlink:title="DOMstudies.js">
<path fill="#ccffcc" stroke="black" d="M84.05,-65.3C84.05,-65.3 22.45,-65.3 22.45,-65.3 19.35,-65.3 16.25,-62.2 16.25,-59.1 16.25,-59.1 16.25,-52.9 16.25,-52.9 16.25,-49.8 19.35,-46.7 22.45,-46.7 22.45,-46.7 84.05,-46.7 84.05,-46.7 87.15,-46.7 90.25,-49.8 90.25,-52.9 90.25,-52.9 90.25,-59.1 90.25,-59.1 90.25,-62.2 87.15,-65.3 84.05,-65.3"/>
<text text-anchor="middle" x="53.25" y="-53.3" font-family="Helvetica,sans-Serif" font-size="9.00">DOMstudies.js</text>
</a>
</g>
</g>
<!-- src/components/delete&#45;btn.js -->
<g id="node2" class="node">
<title>src/components/delete&#45;btn.js</title>
<g id="a_node2"><a xlink:href="../src/components/delete-btn.js" xlink:title="delete&#45;btn.js">
<path fill="#ffffcc" stroke="black" d="M642.31,-85.3C642.31,-85.3 589.68,-85.3 589.68,-85.3 586.58,-85.3 583.48,-82.2 583.48,-79.1 583.48,-79.1 583.48,-72.9 583.48,-72.9 583.48,-69.8 586.58,-66.7 589.68,-66.7 589.68,-66.7 642.31,-66.7 642.31,-66.7 645.41,-66.7 648.51,-69.8 648.51,-72.9 648.51,-72.9 648.51,-79.1 648.51,-79.1 648.51,-82.2 645.41,-85.3 642.31,-85.3"/>
<text text-anchor="middle" x="616" y="-73.3" font-family="Helvetica,sans-Serif" font-size="9.00">delete&#45;btn.js</text>
</a>
</g>
</g>
<!-- src/components/delete&#45;btn.spec.js -->
<g id="node3" class="node">
<title>src/components/delete&#45;btn.spec.js</title>
<g id="a_node3"><a xlink:href="../src/components/delete-btn.spec.js" xlink:title="delete&#45;btn.spec.js">
<path fill="#ffffcc" stroke="black" d="M564.05,-101.3C564.05,-101.3 490.41,-101.3 490.41,-101.3 487.31,-101.3 484.21,-98.2 484.21,-95.1 484.21,-95.1 484.21,-88.9 484.21,-88.9 484.21,-85.8 487.31,-82.7 490.41,-82.7 490.41,-82.7 564.05,-82.7 564.05,-82.7 567.15,-82.7 570.25,-85.8 570.25,-88.9 570.25,-88.9 570.25,-95.1 570.25,-95.1 570.25,-98.2 567.15,-101.3 564.05,-101.3"/>
<text text-anchor="middle" x="527.23" y="-89.3" font-family="Helvetica,sans-Serif" font-size="9.00">delete&#45;btn.spec.js</text>
</a>
</g>
</g>
<!-- src/components/delete&#45;btn.spec.js&#45;&gt;src/components/delete&#45;btn.js -->
<g id="edge1" class="edge">
<title>src/components/delete&#45;btn.spec.js&#45;&gt;src/components/delete&#45;btn.js</title>
<path fill="none" stroke="#000000" stroke-width="2" stroke-opacity="0.200000" d="M570.34,-84.23C572.68,-83.8 575.03,-83.37 577.35,-82.94"/>
<polygon fill="#000000" fill-opacity="0.200000" stroke="#000000" stroke-width="2" stroke-opacity="0.200000" points="577.91,-84.98 583.42,-81.82 577.14,-80.84 577.91,-84.98"/>
</g>
<!-- src/components/list&#45;item.js -->
<g id="node4" class="node">
<title>src/components/list&#45;item.js</title>
<g id="a_node4"><a xlink:href="../src/components/list-item.js" xlink:title="list&#45;item.js">
<path fill="#ffffcc" stroke="black" d="M549.02,-70.3C549.02,-70.3 505.44,-70.3 505.44,-70.3 502.34,-70.3 499.24,-67.2 499.24,-64.1 499.24,-64.1 499.24,-57.9 499.24,-57.9 499.24,-54.8 502.34,-51.7 505.44,-51.7 505.44,-51.7 549.02,-51.7 549.02,-51.7 552.12,-51.7 555.22,-54.8 555.22,-57.9 555.22,-57.9 555.22,-64.1 555.22,-64.1 555.22,-67.2 552.12,-70.3 549.02,-70.3"/>
<text text-anchor="middle" x="527.23" y="-58.3" font-family="Helvetica,sans-Serif" font-size="9.00">list&#45;item.js</text>
</a>
</g>
</g>
<!-- src/components/list&#45;item.js&#45;&gt;src/components/delete&#45;btn.js -->
<g id="edge2" class="edge">
<title>src/components/list&#45;item.js&#45;&gt;src/components/delete&#45;btn.js</title>
<path fill="none" stroke="#000000" stroke-width="2" stroke-opacity="0.200000" d="M555.68,-65.75C562.59,-66.94 570.12,-68.24 577.42,-69.5"/>
<polygon fill="#000000" fill-opacity="0.200000" stroke="#000000" stroke-width="2" stroke-opacity="0.200000" points="577.22,-71.6 583.49,-70.55 577.93,-67.46 577.22,-71.6"/>
</g>
<!-- src/components/list&#45;item.spec.js -->
<g id="node5" class="node">
<title>src/components/list&#45;item.spec.js</title>
<g id="a_node5"><a xlink:href="../src/components/list-item.spec.js" xlink:title="list&#45;item.spec.js">
<path fill="#ffffcc" stroke="black" d="M465.02,-101.3C465.02,-101.3 399.43,-101.3 399.43,-101.3 396.33,-101.3 393.23,-98.2 393.23,-95.1 393.23,-95.1 393.23,-88.9 393.23,-88.9 393.23,-85.8 396.33,-82.7 399.43,-82.7 399.43,-82.7 465.02,-82.7 465.02,-82.7 468.12,-82.7 471.22,-85.8 471.22,-88.9 471.22,-88.9 471.22,-95.1 471.22,-95.1 471.22,-98.2 468.12,-101.3 465.02,-101.3"/>
<text text-anchor="middle" x="432.22" y="-89.3" font-family="Helvetica,sans-Serif" font-size="9.00">list&#45;item.spec.js</text>
</a>
</g>
</g>
<!-- src/components/list&#45;item.spec.js&#45;&gt;src/components/list&#45;item.js -->
<g id="edge3" class="edge">
<title>src/components/list&#45;item.spec.js&#45;&gt;src/components/list&#45;item.js</title>
<path fill="none" stroke="#000000" stroke-width="2" stroke-opacity="0.200000" d="M461.38,-82.61C471.49,-79.25 482.97,-75.42 493.43,-71.93"/>
<polygon fill="#000000" fill-opacity="0.200000" stroke="#000000" stroke-width="2" stroke-opacity="0.200000" points="494.1,-73.92 499.13,-70.03 492.77,-69.94 494.1,-73.92"/>
</g>
<!-- src/components/list.js -->
<g id="node6" class="node">
<title>src/components/list.js</title>
<g id="a_node6"><a xlink:href="../src/components/list.js" xlink:title="list.js">
<path fill="#ffffcc" stroke="black" d="M453.02,-70.3C453.02,-70.3 411.42,-70.3 411.42,-70.3 408.32,-70.3 405.22,-67.2 405.22,-64.1 405.22,-64.1 405.22,-57.9 405.22,-57.9 405.22,-54.8 408.32,-51.7 411.42,-51.7 411.42,-51.7 453.02,-51.7 453.02,-51.7 456.12,-51.7 459.22,-54.8 459.22,-57.9 459.22,-57.9 459.22,-64.1 459.22,-64.1 459.22,-67.2 456.12,-70.3 453.02,-70.3"/>
<text text-anchor="middle" x="432.22" y="-58.3" font-family="Helvetica,sans-Serif" font-size="9.00">list.js</text>
</a>
</g>
</g>
<!-- src/components/list.js&#45;&gt;src/components/list&#45;item.js -->
<g id="edge4" class="edge">
<title>src/components/list.js&#45;&gt;src/components/list&#45;item.js</title>
<path fill="none" stroke="#000000" stroke-width="2" stroke-opacity="0.200000" d="M459.63,-61C469.95,-61 481.91,-61 492.83,-61"/>
<polygon fill="#000000" fill-opacity="0.200000" stroke="#000000" stroke-width="2" stroke-opacity="0.200000" points="493.11,-63.1 499.11,-61 493.11,-58.9 493.11,-63.1"/>
</g>
<!-- src/data.js -->
<g id="node7" class="node">
<title>src/data.js</title>
<g id="a_node7"><a xlink:href="../src/data.js" xlink:title="data.js">
<path fill="#ffffcc" stroke="black" d="M352.28,-157.3C352.28,-157.3 310.68,-157.3 310.68,-157.3 307.58,-157.3 304.48,-154.2 304.48,-151.1 304.48,-151.1 304.48,-144.9 304.48,-144.9 304.48,-141.8 307.58,-138.7 310.68,-138.7 310.68,-138.7 352.28,-138.7 352.28,-138.7 355.38,-138.7 358.48,-141.8 358.48,-144.9 358.48,-144.9 358.48,-151.1 358.48,-151.1 358.48,-154.2 355.38,-157.3 352.28,-157.3"/>
<text text-anchor="middle" x="331.48" y="-145.3" font-family="Helvetica,sans-Serif" font-size="9.00">data.js</text>
</a>
</g>
</g>
<!-- src/handlers/add&#45;item.js -->
<g id="node8" class="node">
<title>src/handlers/add&#45;item.js</title>
<g id="a_node8"><a xlink:href="../src/handlers/add-item.js" xlink:title="add&#45;item.js">
<path fill="#ffffcc" stroke="black" d="M266.79,-104.3C266.79,-104.3 219.19,-104.3 219.19,-104.3 216.09,-104.3 212.99,-101.2 212.99,-98.1 212.99,-98.1 212.99,-91.9 212.99,-91.9 212.99,-88.8 216.09,-85.7 219.19,-85.7 219.19,-85.7 266.79,-85.7 266.79,-85.7 269.89,-85.7 272.99,-88.8 272.99,-91.9 272.99,-91.9 272.99,-98.1 272.99,-98.1 272.99,-101.2 269.89,-104.3 266.79,-104.3"/>
<text text-anchor="middle" x="242.99" y="-92.3" font-family="Helvetica,sans-Serif" font-size="9.00">add&#45;item.js</text>
</a>
</g>
</g>
<!-- src/handlers/add&#45;item.js&#45;&gt;src/data.js -->
<g id="edge5" class="edge">
<title>src/handlers/add&#45;item.js&#45;&gt;src/data.js</title>
<path fill="none" stroke="#000000" stroke-width="2" stroke-opacity="0.200000" d="M253.95,-104.36C263.5,-112.96 278.63,-125.6 293.49,-134 295.06,-134.89 296.69,-135.74 298.37,-136.56"/>
<polygon fill="#000000" fill-opacity="0.200000" stroke="#000000" stroke-width="2" stroke-opacity="0.200000" points="297.82,-138.61 304.15,-139.18 299.56,-134.79 297.82,-138.61"/>
</g>
<!-- src/handlers/re&#45;render&#45;list.js -->
<g id="node9" class="node">
<title>src/handlers/re&#45;render&#45;list.js</title>
<g id="a_node9"><a xlink:href="../src/handlers/re-render-list.js" xlink:title="re&#45;render&#45;list.js">
<path fill="#ffffcc" stroke="black" d="M363.27,-70.3C363.27,-70.3 299.69,-70.3 299.69,-70.3 296.59,-70.3 293.49,-67.2 293.49,-64.1 293.49,-64.1 293.49,-57.9 293.49,-57.9 293.49,-54.8 296.59,-51.7 299.69,-51.7 299.69,-51.7 363.27,-51.7 363.27,-51.7 366.37,-51.7 369.47,-54.8 369.47,-57.9 369.47,-57.9 369.47,-64.1 369.47,-64.1 369.47,-67.2 366.37,-70.3 363.27,-70.3"/>
<text text-anchor="middle" x="331.48" y="-58.3" font-family="Helvetica,sans-Serif" font-size="9.00">re&#45;render&#45;list.js</text>
</a>
</g>
</g>
<!-- src/handlers/add&#45;item.js&#45;&gt;src/handlers/re&#45;render&#45;list.js -->
<g id="edge6" class="edge">
<title>src/handlers/add&#45;item.js&#45;&gt;src/handlers/re&#45;render&#45;list.js</title>
<path fill="none" stroke="#000000" stroke-width="2" stroke-opacity="0.200000" d="M265.55,-85.5C274.19,-81.79 284.26,-77.57 293.49,-74 294.78,-73.5 296.09,-73 297.43,-72.5"/>
<polygon fill="#000000" fill-opacity="0.200000" stroke="#000000" stroke-width="2" stroke-opacity="0.200000" points="298.43,-74.36 303.33,-70.32 296.98,-70.42 298.43,-74.36"/>
</g>
<!-- src/handlers/re&#45;render&#45;list.js&#45;&gt;src/components/list.js -->
<g id="edge7" class="edge">
<title>src/handlers/re&#45;render&#45;list.js&#45;&gt;src/components/list.js</title>
<path fill="none" stroke="#000000" stroke-width="2" stroke-opacity="0.200000" d="M369.53,-61C379.23,-61 389.6,-61 399.02,-61"/>
<polygon fill="#000000" fill-opacity="0.200000" stroke="#000000" stroke-width="2" stroke-opacity="0.200000" points="399.06,-63.1 405.06,-61 399.06,-58.9 399.06,-63.1"/>
</g>
<!-- src/handlers/filter&#45;items.js -->
<g id="node10" class="node">
<title>src/handlers/filter&#45;items.js</title>
<g id="a_node10"><a xlink:href="../src/handlers/filter-items.js" xlink:title="filter&#45;items.js">
<path fill="#ccffcc" stroke="black" d="M270.28,-73.3C270.28,-73.3 215.7,-73.3 215.7,-73.3 212.6,-73.3 209.5,-70.2 209.5,-67.1 209.5,-67.1 209.5,-60.9 209.5,-60.9 209.5,-57.8 212.6,-54.7 215.7,-54.7 215.7,-54.7 270.28,-54.7 270.28,-54.7 273.38,-54.7 276.48,-57.8 276.48,-60.9 276.48,-60.9 276.48,-67.1 276.48,-67.1 276.48,-70.2 273.38,-73.3 270.28,-73.3"/>
<text text-anchor="middle" x="242.99" y="-61.3" font-family="Helvetica,sans-Serif" font-size="9.00">filter&#45;items.js</text>
</a>
</g>
</g>
<!-- src/handlers/remove&#45;item.js -->
<g id="node11" class="node">
<title>src/handlers/remove&#45;item.js</title>
<g id="a_node11"><a xlink:href="../src/handlers/remove-item.js" xlink:title="remove&#45;item.js">
<path fill="#ffffcc" stroke="black" d="M274.28,-42.3C274.28,-42.3 211.7,-42.3 211.7,-42.3 208.6,-42.3 205.5,-39.2 205.5,-36.1 205.5,-36.1 205.5,-29.9 205.5,-29.9 205.5,-26.8 208.6,-23.7 211.7,-23.7 211.7,-23.7 274.28,-23.7 274.28,-23.7 277.38,-23.7 280.48,-26.8 280.48,-29.9 280.48,-29.9 280.48,-36.1 280.48,-36.1 280.48,-39.2 277.38,-42.3 274.28,-42.3"/>
<text text-anchor="middle" x="242.99" y="-30.3" font-family="Helvetica,sans-Serif" font-size="9.00">remove&#45;item.js</text>
</a>
</g>
</g>
<!-- src/handlers/remove&#45;item.js&#45;&gt;src/data.js -->
<g id="edge8" class="edge">
<title>src/handlers/remove&#45;item.js&#45;&gt;src/data.js</title>
<path fill="none" stroke="#000000" stroke-width="2" stroke-opacity="0.200000" d="M273.11,-42.31C275.92,-44.16 278.46,-46.37 280.49,-49 303.76,-79.31 269.44,-104.29 293.49,-134 295,-135.87 296.79,-137.49 298.76,-138.9"/>
<polygon fill="#000000" fill-opacity="0.200000" stroke="#000000" stroke-width="2" stroke-opacity="0.200000" points="298.07,-140.92 304.31,-142.13 300.18,-137.3 298.07,-140.92"/>
</g>
<!-- src/handlers/remove&#45;item.js&#45;&gt;src/handlers/re&#45;render&#45;list.js -->
<g id="edge9" class="edge">
<title>src/handlers/remove&#45;item.js&#45;&gt;src/handlers/re&#45;render&#45;list.js</title>
<path fill="none" stroke="#000000" stroke-width="2" stroke-opacity="0.200000" d="M272.79,-42.32C280.15,-44.71 288.15,-47.29 295.77,-49.76"/>
<polygon fill="#000000" fill-opacity="0.200000" stroke="#000000" stroke-width="2" stroke-opacity="0.200000" points="295.16,-51.77 301.51,-51.62 296.45,-47.78 295.16,-51.77"/>
</g>
<!-- src/init/index.js -->
<g id="node12" class="node">
<title>src/init/index.js</title>
<g id="a_node12"><a xlink:href="../src/init/index.js" xlink:title="index.js">
<path fill="#ffffcc" stroke="black" d="M74.05,-99.3C74.05,-99.3 32.45,-99.3 32.45,-99.3 29.35,-99.3 26.25,-96.2 26.25,-93.1 26.25,-93.1 26.25,-86.9 26.25,-86.9 26.25,-83.8 29.35,-80.7 32.45,-80.7 32.45,-80.7 74.05,-80.7 74.05,-80.7 77.15,-80.7 80.25,-83.8 80.25,-86.9 80.25,-86.9 80.25,-93.1 80.25,-93.1 80.25,-96.2 77.15,-99.3 74.05,-99.3"/>
<text text-anchor="middle" x="53.25" y="-87.3" font-family="Helvetica,sans-Serif" font-size="9.00">index.js</text>
</a>
</g>
</g>
<!-- src/listeners/add&#45;item.js -->
<g id="node13" class="node">
<title>src/listeners/add&#45;item.js</title>
<g id="a_node13"><a xlink:href="../src/listeners/add-item.js" xlink:title="add&#45;item.js">
<path fill="#ffffcc" stroke="black" d="M167.8,-104.3C167.8,-104.3 120.2,-104.3 120.2,-104.3 117.1,-104.3 114,-101.2 114,-98.1 114,-98.1 114,-91.9 114,-91.9 114,-88.8 117.1,-85.7 120.2,-85.7 120.2,-85.7 167.8,-85.7 167.8,-85.7 170.9,-85.7 174,-88.8 174,-91.9 174,-91.9 174,-98.1 174,-98.1 174,-101.2 170.9,-104.3 167.8,-104.3"/>
<text text-anchor="middle" x="144" y="-92.3" font-family="Helvetica,sans-Serif" font-size="9.00">add&#45;item.js</text>
</a>
</g>
</g>
<!-- src/init/index.js&#45;&gt;src/listeners/add&#45;item.js -->
<g id="edge10" class="edge">
<title>src/init/index.js&#45;&gt;src/listeners/add&#45;item.js</title>
<path fill="none" stroke="#000000" stroke-width="2" stroke-opacity="0.200000" d="M80.4,-91.47C88.95,-91.96 98.61,-92.5 107.72,-93.01"/>
<polygon fill="#000000" fill-opacity="0.200000" stroke="#000000" stroke-width="2" stroke-opacity="0.200000" points="107.82,-95.12 113.93,-93.36 108.06,-90.93 107.82,-95.12"/>
</g>
<!-- src/listeners/filter&#45;items.js -->
<g id="node14" class="node">
<title>src/listeners/filter&#45;items.js</title>
<g id="a_node14"><a xlink:href="../src/listeners/filter-items.js" xlink:title="filter&#45;items.js">
<path fill="#ffffcc" stroke="black" d="M171.28,-73.3C171.28,-73.3 116.71,-73.3 116.71,-73.3 113.61,-73.3 110.51,-70.2 110.51,-67.1 110.51,-67.1 110.51,-60.9 110.51,-60.9 110.51,-57.8 113.61,-54.7 116.71,-54.7 116.71,-54.7 171.28,-54.7 171.28,-54.7 174.39,-54.7 177.49,-57.8 177.49,-60.9 177.49,-60.9 177.49,-67.1 177.49,-67.1 177.49,-70.2 174.39,-73.3 171.28,-73.3"/>
<text text-anchor="middle" x="144" y="-61.3" font-family="Helvetica,sans-Serif" font-size="9.00">filter&#45;items.js</text>
</a>
</g>
</g>
<!-- src/init/index.js&#45;&gt;src/listeners/filter&#45;items.js -->
<g id="edge11" class="edge">
<title>src/init/index.js&#45;&gt;src/listeners/filter&#45;items.js</title>
<path fill="none" stroke="#000000" stroke-width="2" stroke-opacity="0.200000" d="M80.4,-82.34C88.06,-80.1 96.59,-77.59 104.84,-75.18"/>
<polygon fill="#000000" fill-opacity="0.200000" stroke="#000000" stroke-width="2" stroke-opacity="0.200000" points="105.9,-77.06 111.07,-73.35 104.72,-73.03 105.9,-77.06"/>
</g>
<!-- src/listeners/remove&#45;item.js -->
<g id="node15" class="node">
<title>src/listeners/remove&#45;item.js</title>
<g id="a_node15"><a xlink:href="../src/listeners/remove-item.js" xlink:title="remove&#45;item.js">
<path fill="#ffffcc" stroke="black" d="M175.29,-42.3C175.29,-42.3 112.7,-42.3 112.7,-42.3 109.6,-42.3 106.5,-39.2 106.5,-36.1 106.5,-36.1 106.5,-29.9 106.5,-29.9 106.5,-26.8 109.6,-23.7 112.7,-23.7 112.7,-23.7 175.29,-23.7 175.29,-23.7 178.39,-23.7 181.49,-26.8 181.49,-29.9 181.49,-29.9 181.49,-36.1 181.49,-36.1 181.49,-39.2 178.39,-42.3 175.29,-42.3"/>
<text text-anchor="middle" x="144" y="-30.3" font-family="Helvetica,sans-Serif" font-size="9.00">remove&#45;item.js</text>
</a>
</g>
</g>
<!-- src/init/index.js&#45;&gt;src/listeners/remove&#45;item.js -->
<g id="edge12" class="edge">
<title>src/init/index.js&#45;&gt;src/listeners/remove&#45;item.js</title>
<path fill="none" stroke="#000000" stroke-width="2" stroke-opacity="0.200000" d="M80.27,-84.13C84.08,-82.35 87.67,-80.03 90.5,-77 99.34,-67.55 89.66,-58.45 98.5,-49 99.58,-47.85 100.75,-46.77 101.99,-45.78"/>
<polygon fill="#000000" fill-opacity="0.200000" stroke="#000000" stroke-width="2" stroke-opacity="0.200000" points="103.29,-47.43 107.07,-42.32 100.93,-43.96 103.29,-47.43"/>
</g>
<!-- src/listeners/add&#45;item.js&#45;&gt;src/handlers/add&#45;item.js -->
<g id="edge13" class="edge">
<title>src/listeners/add&#45;item.js&#45;&gt;src/handlers/add&#45;item.js</title>
<path fill="none" stroke="#000000" stroke-width="2" stroke-opacity="0.200000" d="M174.1,-95C184.36,-95 196.01,-95 206.73,-95"/>
<polygon fill="#000000" fill-opacity="0.200000" stroke="#000000" stroke-width="2" stroke-opacity="0.200000" points="206.91,-97.1 212.91,-95 206.91,-92.9 206.91,-97.1"/>
</g>
<!-- src/listeners/remove&#45;item.js&#45;&gt;src/handlers/remove&#45;item.js -->
<g id="edge14" class="edge">
<title>src/listeners/remove&#45;item.js&#45;&gt;src/handlers/remove&#45;item.js</title>
<path fill="none" stroke="#000000" stroke-width="2" stroke-opacity="0.200000" d="M181.67,-33C187.34,-33 193.24,-33 199.04,-33"/>
<polygon fill="#000000" fill-opacity="0.200000" stroke="#000000" stroke-width="2" stroke-opacity="0.200000" points="199.27,-35.1 205.27,-33 199.27,-30.9 199.27,-35.1"/>
</g>
<!-- src/schema.js -->
<g id="node16" class="node">
<title>src/schema.js</title>
<g id="a_node16"><a xlink:href="../src/schema.js" xlink:title="schema.js">
<path fill="#ccffcc" stroke="black" d="M75.06,-34.3C75.06,-34.3 31.44,-34.3 31.44,-34.3 28.34,-34.3 25.24,-31.2 25.24,-28.1 25.24,-28.1 25.24,-21.9 25.24,-21.9 25.24,-18.8 28.34,-15.7 31.44,-15.7 31.44,-15.7 75.06,-15.7 75.06,-15.7 78.16,-15.7 81.26,-18.8 81.26,-21.9 81.26,-21.9 81.26,-28.1 81.26,-28.1 81.26,-31.2 78.16,-34.3 75.06,-34.3"/>
<text text-anchor="middle" x="53.25" y="-22.3" font-family="Helvetica,sans-Serif" font-size="9.00">schema.js</text>
</a>
</g>
</g>
</g>
</svg>
