<?xml version="1.0" encoding="UTF-8" standalone="no"?>
<!DOCTYPE svg PUBLIC "-//W3C//DTD SVG 1.1//EN"
 "http://www.w3.org/Graphics/SVG/1.1/DTD/svg11.dtd">
<!-- Generated by graphviz version 2.44.0 (20200408.0750)
 -->
<!-- Title: dependency&#45;cruiser output Pages: 1 -->
<svg width="657pt" height="200pt"
 viewBox="0.00 0.00 657.01 200.00" xmlns="http://www.w3.org/2000/svg" xmlns:xlink="http://www.w3.org/1999/xlink">
<g id="graph0" class="graph" transform="scale(1 1) rotate(0) translate(4 196)">
<title>dependency&#45;cruiser output</title>
<polygon fill="white" stroke="transparent" points="-4,4 -4,-196 653.01,-196 653.01,4 -4,4"/>
<g id="clust1" class="cluster">
<title>cluster_src</title>
<path fill="#ffffff" stroke="black" stroke-width="2" d="M20,-8C20,-8 629.01,-8 629.01,-8 635.01,-8 641.01,-14 641.01,-20 641.01,-20 641.01,-172 641.01,-172 641.01,-178 635.01,-184 629.01,-184 629.01,-184 20,-184 20,-184 14,-184 8,-178 8,-172 8,-172 8,-20 8,-20 8,-14 14,-8 20,-8"/>
<text text-anchor="middle" x="324.5" y="-171.9" font-family="Helvetica,sans-Serif" font-weight="bold" font-size="9.00">src</text>
</g>
<g id="clust2" class="cluster">
<title>cluster_src/components</title>
<path fill="#ffffff" stroke="black" stroke-width="2" d="M397.48,-44C397.48,-44 621.01,-44 621.01,-44 627.01,-44 633.01,-50 633.01,-56 633.01,-56 633.01,-116 633.01,-116 633.01,-122 627.01,-128 621.01,-128 621.01,-128 397.48,-128 397.48,-128 391.48,-128 385.48,-122 385.48,-116 385.48,-116 385.48,-56 385.48,-56 385.48,-50 391.48,-44 397.48,-44"/>
<text text-anchor="middle" x="509.24" y="-115.9" font-family="Helvetica,sans-Serif" font-weight="bold" font-size="9.00">components</text>
</g>
<g id="clust3" class="cluster">
<title>cluster_src/handlers</title>
<path fill="#ffffff" stroke="black" stroke-width="2" d="M209.49,-16C209.49,-16 365.48,-16 365.48,-16 371.48,-16 377.48,-22 377.48,-28 377.48,-28 377.48,-119 377.48,-119 377.48,-125 371.48,-131 365.48,-131 365.48,-131 209.49,-131 209.49,-131 203.49,-131 197.49,-125 197.49,-119 197.49,-119 197.49,-28 197.49,-28 197.49,-22 203.49,-16 209.49,-16"/>
<text text-anchor="middle" x="287.48" y="-118.9" font-family="Helvetica,sans-Serif" font-weight="bold" font-size="9.00">handlers</text>
</g>
<g id="clust4" class="cluster">
<title>cluster_src/init</title>
<path fill="#ffffff" stroke="black" stroke-width="2" d="M30.25,-73C30.25,-73 76.25,-73 76.25,-73 82.25,-73 88.25,-79 88.25,-85 88.25,-85 88.25,-114 88.25,-114 88.25,-120 82.25,-126 76.25,-126 76.25,-126 30.25,-126 30.25,-126 24.25,-126 18.25,-120 18.25,-114 18.25,-114 18.25,-85 18.25,-85 18.25,-79 24.25,-73 30.25,-73"/>
<text text-anchor="middle" x="53.25" y="-113.9" font-family="Helvetica,sans-Serif" font-weight="bold" font-size="9.00">init</text>
</g>
<g id="clust5" class="cluster">
<title>cluster_src/listeners</title>
<path fill="#ffffff" stroke="black" stroke-width="2" d="M110.5,-16C110.5,-16 177.49,-16 177.49,-16 183.49,-16 189.49,-22 189.49,-28 189.49,-28 189.49,-119 189.49,-119 189.49,-125 183.49,-131 177.49,-131 177.49,-131 110.5,-131 110.5,-131 104.5,-131 98.5,-125 98.5,-119 98.5,-119 98.5,-28 98.5,-28 98.5,-22 104.5,-16 110.5,-16"/>
<text text-anchor="middle" x="144" y="-118.9" font-family="Helvetica,sans-Serif" font-weight="bold" font-size="9.00">listeners</text>
</g>
<!-- src/DOMstudies.js -->
<g id="node1" class="node">
<title>src/DOMstudies.js</title>
<g id="a_node1"><a xlink:href="../src/DOMstudies.js" xlink:title="DOMstudies.js">
<path fill="#ccffcc" stroke="black" d="M84.05,-65.3C84.05,-65.3 22.45,-65.3 22.45,-65.3 19.35,-65.3 16.25,-62.2 16.25,-59.1 16.25,-59.1 16.25,-52.9 16.25,-52.9 16.25,-49.8 19.35,-46.7 22.45,-46.7 22.45,-46.7 84.05,-46.7 84.05,-46.7 87.15,-46.7 90.25,-49.8 90.25,-52.9 90.25,-52.9 90.25,-59.1 90.25,-59.1 90.25,-62.2 87.15,-65.3 84.05,-65.3"/>
<text text-anchor="middle" x="53.25" y="-53.3" font-family="Helvetica,sans-Serif" font-size="9.00">DOMstudies.js</text>
</a>
</g>
</g>
<!-- src/components/delete&#45;btn.js -->
<g id="node2" class="node">
<title>src/components/delete&#45;btn.js</title>
<g id="a_node2"><a xlink:href="../src/components/delete-btn.js" xlink:title="delete&#45;btn.js">
<path fill="#ffffcc" stroke="black" d="M618.81,-85.3C618.81,-85.3 566.19,-85.3 566.19,-85.3 563.09,-85.3 559.99,-82.2 559.99,-79.1 559.99,-79.1 559.99,-72.9 559.99,-72.9 559.99,-69.8 563.09,-66.7 566.19,-66.7 566.19,-66.7 618.81,-66.7 618.81,-66.7 621.91,-66.7 625.01,-69.8 625.01,-72.9 625.01,-72.9 625.01,-79.1 625.01,-79.1 625.01,-82.2 621.91,-85.3 618.81,-85.3"/>
<text text-anchor="middle" x="592.5" y="-73.3" font-family="Helvetica,sans-Serif" font-size="9.00">delete&#45;btn.js</text>
</a>
</g>
</g>
<!-- src/components/delete&#45;btn.spec.js -->
<g id="node3" class="node">
<title>src/components/delete&#45;btn.spec.js</title>
<g id="a_node3"><a xlink:href="../src/components/delete-btn.spec.js" xlink:title="delete&#45;btn.spec.js">
<path fill="#ffffcc" stroke="black" d="M540.56,-101.3C540.56,-101.3 466.92,-101.3 466.92,-101.3 463.82,-101.3 460.71,-98.2 460.71,-95.1 460.71,-95.1 460.71,-88.9 460.71,-88.9 460.71,-85.8 463.82,-82.7 466.92,-82.7 466.92,-82.7 540.56,-82.7 540.56,-82.7 543.66,-82.7 546.76,-85.8 546.76,-88.9 546.76,-88.9 546.76,-95.1 546.76,-95.1 546.76,-98.2 543.66,-101.3 540.56,-101.3"/>
<text text-anchor="middle" x="503.74" y="-89.3" font-family="Helvetica,sans-Serif" font-size="9.00">delete&#45;btn.spec.js</text>
</a>
</g>
</g>
<!-- src/components/delete&#45;btn.spec.js&#45;&gt;src/components/delete&#45;btn.js -->
<g id="edge1" class="edge">
<title>src/components/delete&#45;btn.spec.js&#45;&gt;src/components/delete&#45;btn.js</title>
<path fill="none" stroke="#000000" stroke-width="2" stroke-opacity="0.200000" d="M546.85,-84.23C549.19,-83.8 551.53,-83.37 553.85,-82.94"/>
<polygon fill="#000000" fill-opacity="0.200000" stroke="#000000" stroke-width="2" stroke-opacity="0.200000" points="554.41,-84.98 559.93,-81.82 553.65,-80.84 554.41,-84.98"/>
</g>
<!-- src/components/list&#45;item.js -->
<g id="node4" class="node">
<title>src/components/list&#45;item.js</title>
<g id="a_node4"><a xlink:href="../src/components/list-item.js" xlink:title="list&#45;item.js">
<path fill="#ffffcc" stroke="black" d="M525.52,-70.3C525.52,-70.3 481.95,-70.3 481.95,-70.3 478.85,-70.3 475.75,-67.2 475.75,-64.1 475.75,-64.1 475.75,-57.9 475.75,-57.9 475.75,-54.8 478.85,-51.7 481.95,-51.7 481.95,-51.7 525.52,-51.7 525.52,-51.7 528.62,-51.7 531.72,-54.8 531.72,-57.9 531.72,-57.9 531.72,-64.1 531.72,-64.1 531.72,-67.2 528.62,-70.3 525.52,-70.3"/>
<text text-anchor="middle" x="503.74" y="-58.3" font-family="Helvetica,sans-Serif" font-size="9.00">list&#45;item.js</text>
</a>
</g>
</g>
<!-- src/components/list&#45;item.js&#45;&gt;src/components/delete&#45;btn.js -->
<g id="edge2" class="edge">
<title>src/components/list&#45;item.js&#45;&gt;src/components/delete&#45;btn.js</title>
<path fill="none" stroke="#000000" stroke-width="2" stroke-opacity="0.200000" d="M532.19,-65.75C539.09,-66.94 546.62,-68.24 553.93,-69.5"/>
<polygon fill="#000000" fill-opacity="0.200000" stroke="#000000" stroke-width="2" stroke-opacity="0.200000" points="553.72,-71.6 559.99,-70.55 554.44,-67.46 553.72,-71.6"/>
</g>
<!-- src/components/list.js -->
<g id="node5" class="node">
<title>src/components/list.js</title>
<g id="a_node5"><a xlink:href="../src/components/list.js" xlink:title="list.js">
<path fill="#ffffcc" stroke="black" d="M441.28,-70.3C441.28,-70.3 399.68,-70.3 399.68,-70.3 396.58,-70.3 393.48,-67.2 393.48,-64.1 393.48,-64.1 393.48,-57.9 393.48,-57.9 393.48,-54.8 396.58,-51.7 399.68,-51.7 399.68,-51.7 441.28,-51.7 441.28,-51.7 444.38,-51.7 447.48,-54.8 447.48,-57.9 447.48,-57.9 447.48,-64.1 447.48,-64.1 447.48,-67.2 444.38,-70.3 441.28,-70.3"/>
<text text-anchor="middle" x="420.48" y="-58.3" font-family="Helvetica,sans-Serif" font-size="9.00">list.js</text>
</a>
</g>
</g>
<!-- src/components/list.js&#45;&gt;src/components/list&#45;item.js -->
<g id="edge3" class="edge">
<title>src/components/list.js&#45;&gt;src/components/list&#45;item.js</title>
<path fill="none" stroke="#000000" stroke-width="2" stroke-opacity="0.200000" d="M447.63,-61C454.59,-61 462.2,-61 469.49,-61"/>
<polygon fill="#000000" fill-opacity="0.200000" stroke="#000000" stroke-width="2" stroke-opacity="0.200000" points="469.51,-63.1 475.51,-61 469.51,-58.9 469.51,-63.1"/>
</g>
<!-- src/data.js -->
<g id="node6" class="node">
<title>src/data.js</title>
<g id="a_node6"><a xlink:href="../src/data.js" xlink:title="data.js">
<path fill="#ffffcc" stroke="black" d="M352.28,-157.3C352.28,-157.3 310.68,-157.3 310.68,-157.3 307.58,-157.3 304.48,-154.2 304.48,-151.1 304.48,-151.1 304.48,-144.9 304.48,-144.9 304.48,-141.8 307.58,-138.7 310.68,-138.7 310.68,-138.7 352.28,-138.7 352.28,-138.7 355.38,-138.7 358.48,-141.8 358.48,-144.9 358.48,-144.9 358.48,-151.1 358.48,-151.1 358.48,-154.2 355.38,-157.3 352.28,-157.3"/>
<text text-anchor="middle" x="331.48" y="-145.3" font-family="Helvetica,sans-Serif" font-size="9.00">data.js</text>
</a>
</g>
</g>
<!-- src/handlers/add&#45;item.js -->
<g id="node7" class="node">
<title>src/handlers/add&#45;item.js</title>
<g id="a_node7"><a xlink:href="../src/handlers/add-item.js" xlink:title="add&#45;item.js">
<path fill="#ffffcc" stroke="black" d="M266.79,-104.3C266.79,-104.3 219.19,-104.3 219.19,-104.3 216.09,-104.3 212.99,-101.2 212.99,-98.1 212.99,-98.1 212.99,-91.9 212.99,-91.9 212.99,-88.8 216.09,-85.7 219.19,-85.7 219.19,-85.7 266.79,-85.7 266.79,-85.7 269.89,-85.7 272.99,-88.8 272.99,-91.9 272.99,-91.9 272.99,-98.1 272.99,-98.1 272.99,-101.2 269.89,-104.3 266.79,-104.3"/>
<text text-anchor="middle" x="242.99" y="-92.3" font-family="Helvetica,sans-Serif" font-size="9.00">add&#45;item.js</text>
</a>
</g>
</g>
<!-- src/handlers/add&#45;item.js&#45;&gt;src/data.js -->
<g id="edge4" class="edge">
<title>src/handlers/add&#45;item.js&#45;&gt;src/data.js</title>
<path fill="none" stroke="#000000" stroke-width="2" stroke-opacity="0.200000" d="M253.95,-104.36C263.5,-112.96 278.63,-125.6 293.49,-134 295.06,-134.89 296.69,-135.74 298.37,-136.56"/>
<polygon fill="#000000" fill-opacity="0.200000" stroke="#000000" stroke-width="2" stroke-opacity="0.200000" points="297.82,-138.61 304.15,-139.18 299.56,-134.79 297.82,-138.61"/>
</g>
<!-- src/handlers/re&#45;render&#45;list.js -->
<g id="node8" class="node">
<title>src/handlers/re&#45;render&#45;list.js</title>
<g id="a_node8"><a xlink:href="../src/handlers/re-render-list.js" xlink:title="re&#45;render&#45;list.js">
<path fill="#ffffcc" stroke="black" d="M363.27,-70.3C363.27,-70.3 299.69,-70.3 299.69,-70.3 296.59,-70.3 293.49,-67.2 293.49,-64.1 293.49,-64.1 293.49,-57.9 293.49,-57.9 293.49,-54.8 296.59,-51.7 299.69,-51.7 299.69,-51.7 363.27,-51.7 363.27,-51.7 366.37,-51.7 369.47,-54.8 369.47,-57.9 369.47,-57.9 369.47,-64.1 369.47,-64.1 369.47,-67.2 366.37,-70.3 363.27,-70.3"/>
<text text-anchor="middle" x="331.48" y="-58.3" font-family="Helvetica,sans-Serif" font-size="9.00">re&#45;render&#45;list.js</text>
</a>
</g>
</g>
<!-- src/handlers/add&#45;item.js&#45;&gt;src/handlers/re&#45;render&#45;list.js -->
<g id="edge5" class="edge">
<title>src/handlers/add&#45;item.js&#45;&gt;src/handlers/re&#45;render&#45;list.js</title>
<path fill="none" stroke="#000000" stroke-width="2" stroke-opacity="0.200000" d="M265.55,-85.5C274.19,-81.79 284.26,-77.57 293.49,-74 294.78,-73.5 296.09,-73 297.43,-72.5"/>
<polygon fill="#000000" fill-opacity="0.200000" stroke="#000000" stroke-width="2" stroke-opacity="0.200000" points="298.43,-74.36 303.33,-70.32 296.98,-70.42 298.43,-74.36"/>
</g>
<!-- src/handlers/re&#45;render&#45;list.js&#45;&gt;src/components/list.js -->
<g id="edge6" class="edge">
<title>src/handlers/re&#45;render&#45;list.js&#45;&gt;src/components/list.js</title>
<path fill="none" stroke="#000000" stroke-width="2" stroke-opacity="0.200000" d="M369.63,-61C375.46,-61 381.45,-61 387.16,-61"/>
<polygon fill="#000000" fill-opacity="0.200000" stroke="#000000" stroke-width="2" stroke-opacity="0.200000" points="387.23,-63.1 393.23,-61 387.23,-58.9 387.23,-63.1"/>
</g>
<!-- src/handlers/filter&#45;items.js -->
<g id="node9" class="node">
<title>src/handlers/filter&#45;items.js</title>
<g id="a_node9"><a xlink:href="../src/handlers/filter-items.js" xlink:title="filter&#45;items.js">
<path fill="#ccffcc" stroke="black" d="M270.28,-73.3C270.28,-73.3 215.7,-73.3 215.7,-73.3 212.6,-73.3 209.5,-70.2 209.5,-67.1 209.5,-67.1 209.5,-60.9 209.5,-60.9 209.5,-57.8 212.6,-54.7 215.7,-54.7 215.7,-54.7 270.28,-54.7 270.28,-54.7 273.38,-54.7 276.48,-57.8 276.48,-60.9 276.48,-60.9 276.48,-67.1 276.48,-67.1 276.48,-70.2 273.38,-73.3 270.28,-73.3"/>
<text text-anchor="middle" x="242.99" y="-61.3" font-family="Helvetica,sans-Serif" font-size="9.00">filter&#45;items.js</text>
</a>
</g>
</g>
<!-- src/handlers/remove&#45;item.js -->
<g id="node10" class="node">
<title>src/handlers/remove&#45;item.js</title>
<g id="a_node10"><a xlink:href="../src/handlers/remove-item.js" xlink:title="remove&#45;item.js">
<path fill="#ffffcc" stroke="black" d="M274.28,-42.3C274.28,-42.3 211.7,-42.3 211.7,-42.3 208.6,-42.3 205.5,-39.2 205.5,-36.1 205.5,-36.1 205.5,-29.9 205.5,-29.9 205.5,-26.8 208.6,-23.7 211.7,-23.7 211.7,-23.7 274.28,-23.7 274.28,-23.7 277.38,-23.7 280.48,-26.8 280.48,-29.9 280.48,-29.9 280.48,-36.1 280.48,-36.1 280.48,-39.2 277.38,-42.3 274.28,-42.3"/>
<text text-anchor="middle" x="242.99" y="-30.3" font-family="Helvetica,sans-Serif" font-size="9.00">remove&#45;item.js</text>
</a>
</g>
</g>
<!-- src/handlers/remove&#45;item.js&#45;&gt;src/data.js -->
<g id="edge7" class="edge">
<title>src/handlers/remove&#45;item.js&#45;&gt;src/data.js</title>
<path fill="none" stroke="#000000" stroke-width="2" stroke-opacity="0.200000" d="M273.11,-42.31C275.92,-44.16 278.46,-46.37 280.49,-49 303.76,-79.31 269.44,-104.29 293.49,-134 295,-135.87 296.79,-137.49 298.76,-138.9"/>
<polygon fill="#000000" fill-opacity="0.200000" stroke="#000000" stroke-width="2" stroke-opacity="0.200000" points="298.07,-140.92 304.31,-142.13 300.18,-137.3 298.07,-140.92"/>
</g>
<!-- src/handlers/remove&#45;item.js&#45;&gt;src/handlers/re&#45;render&#45;list.js -->
<g id="edge8" class="edge">
<title>src/handlers/remove&#45;item.js&#45;&gt;src/handlers/re&#45;render&#45;list.js</title>
<path fill="none" stroke="#000000" stroke-width="2" stroke-opacity="0.200000" d="M272.79,-42.32C280.15,-44.71 288.15,-47.29 295.77,-49.76"/>
<polygon fill="#000000" fill-opacity="0.200000" stroke="#000000" stroke-width="2" stroke-opacity="0.200000" points="295.16,-51.77 301.51,-51.62 296.45,-47.78 295.16,-51.77"/>
</g>
<!-- src/init/index.js -->
<g id="node11" class="node">
<title>src/init/index.js</title>
<g id="a_node11"><a xlink:href="../src/init/index.js" xlink:title="index.js">
<path fill="#ffffcc" stroke="black" d="M74.05,-99.3C74.05,-99.3 32.45,-99.3 32.45,-99.3 29.35,-99.3 26.25,-96.2 26.25,-93.1 26.25,-93.1 26.25,-86.9 26.25,-86.9 26.25,-83.8 29.35,-80.7 32.45,-80.7 32.45,-80.7 74.05,-80.7 74.05,-80.7 77.15,-80.7 80.25,-83.8 80.25,-86.9 80.25,-86.9 80.25,-93.1 80.25,-93.1 80.25,-96.2 77.15,-99.3 74.05,-99.3"/>
<text text-anchor="middle" x="53.25" y="-87.3" font-family="Helvetica,sans-Serif" font-size="9.00">index.js</text>
</a>
</g>
</g>
<!-- src/listeners/add&#45;item.js -->
<g id="node12" class="node">
<title>src/listeners/add&#45;item.js</title>
<g id="a_node12"><a xlink:href="../src/listeners/add-item.js" xlink:title="add&#45;item.js">
<path fill="#ffffcc" stroke="black" d="M167.8,-104.3C167.8,-104.3 120.2,-104.3 120.2,-104.3 117.1,-104.3 114,-101.2 114,-98.1 114,-98.1 114,-91.9 114,-91.9 114,-88.8 117.1,-85.7 120.2,-85.7 120.2,-85.7 167.8,-85.7 167.8,-85.7 170.9,-85.7 174,-88.8 174,-91.9 174,-91.9 174,-98.1 174,-98.1 174,-101.2 170.9,-104.3 167.8,-104.3"/>
<text text-anchor="middle" x="144" y="-92.3" font-family="Helvetica,sans-Serif" font-size="9.00">add&#45;item.js</text>
</a>
</g>
</g>
<!-- src/init/index.js&#45;&gt;src/listeners/add&#45;item.js -->
<g id="edge9" class="edge">
<title>src/init/index.js&#45;&gt;src/listeners/add&#45;item.js</title>
<path fill="none" stroke="#000000" stroke-width="2" stroke-opacity="0.200000" d="M80.4,-91.47C88.95,-91.96 98.61,-92.5 107.72,-93.01"/>
<polygon fill="#000000" fill-opacity="0.200000" stroke="#000000" stroke-width="2" stroke-opacity="0.200000" points="107.82,-95.12 113.93,-93.36 108.06,-90.93 107.82,-95.12"/>
</g>
<!-- src/listeners/filter&#45;items.js -->
<g id="node13" class="node">
<title>src/listeners/filter&#45;items.js</title>
<g id="a_node13"><a xlink:href="../src/listeners/filter-items.js" xlink:title="filter&#45;items.js">
<path fill="#ffffcc" stroke="black" d="M171.28,-73.3C171.28,-73.3 116.71,-73.3 116.71,-73.3 113.61,-73.3 110.51,-70.2 110.51,-67.1 110.51,-67.1 110.51,-60.9 110.51,-60.9 110.51,-57.8 113.61,-54.7 116.71,-54.7 116.71,-54.7 171.28,-54.7 171.28,-54.7 174.39,-54.7 177.49,-57.8 177.49,-60.9 177.49,-60.9 177.49,-67.1 177.49,-67.1 177.49,-70.2 174.39,-73.3 171.28,-73.3"/>
<text text-anchor="middle" x="144" y="-61.3" font-family="Helvetica,sans-Serif" font-size="9.00">filter&#45;items.js</text>
</a>
</g>
</g>
<!-- src/init/index.js&#45;&gt;src/listeners/filter&#45;items.js -->
<g id="edge10" class="edge">
<title>src/init/index.js&#45;&gt;src/listeners/filter&#45;items.js</title>
<path fill="none" stroke="#000000" stroke-width="2" stroke-opacity="0.200000" d="M80.4,-82.34C88.06,-80.1 96.59,-77.59 104.84,-75.18"/>
<polygon fill="#000000" fill-opacity="0.200000" stroke="#000000" stroke-width="2" stroke-opacity="0.200000" points="105.9,-77.06 111.07,-73.35 104.72,-73.03 105.9,-77.06"/>
</g>
<!-- src/listeners/remove&#45;item.js -->
<g id="node14" class="node">
<title>src/listeners/remove&#45;item.js</title>
<g id="a_node14"><a xlink:href="../src/listeners/remove-item.js" xlink:title="remove&#45;item.js">
<path fill="#ffffcc" stroke="black" d="M175.29,-42.3C175.29,-42.3 112.7,-42.3 112.7,-42.3 109.6,-42.3 106.5,-39.2 106.5,-36.1 106.5,-36.1 106.5,-29.9 106.5,-29.9 106.5,-26.8 109.6,-23.7 112.7,-23.7 112.7,-23.7 175.29,-23.7 175.29,-23.7 178.39,-23.7 181.49,-26.8 181.49,-29.9 181.49,-29.9 181.49,-36.1 181.49,-36.1 181.49,-39.2 178.39,-42.3 175.29,-42.3"/>
<text text-anchor="middle" x="144" y="-30.3" font-family="Helvetica,sans-Serif" font-size="9.00">remove&#45;item.js</text>
</a>
</g>
</g>
<!-- src/init/index.js&#45;&gt;src/listeners/remove&#45;item.js -->
<g id="edge11" class="edge">
<title>src/init/index.js&#45;&gt;src/listeners/remove&#45;item.js</title>
<path fill="none" stroke="#000000" stroke-width="2" stroke-opacity="0.200000" d="M80.27,-84.13C84.08,-82.35 87.67,-80.03 90.5,-77 99.34,-67.55 89.66,-58.45 98.5,-49 99.58,-47.85 100.75,-46.77 101.99,-45.78"/>
<polygon fill="#000000" fill-opacity="0.200000" stroke="#000000" stroke-width="2" stroke-opacity="0.200000" points="103.29,-47.43 107.07,-42.32 100.93,-43.96 103.29,-47.43"/>
</g>
<!-- src/listeners/add&#45;item.js&#45;&gt;src/handlers/add&#45;item.js -->
<g id="edge12" class="edge">
<title>src/listeners/add&#45;item.js&#45;&gt;src/handlers/add&#45;item.js</title>
<path fill="none" stroke="#000000" stroke-width="2" stroke-opacity="0.200000" d="M174.1,-95C184.36,-95 196.01,-95 206.73,-95"/>
<polygon fill="#000000" fill-opacity="0.200000" stroke="#000000" stroke-width="2" stroke-opacity="0.200000" points="206.91,-97.1 212.91,-95 206.91,-92.9 206.91,-97.1"/>
</g>
<!-- src/listeners/remove&#45;item.js&#45;&gt;src/handlers/remove&#45;item.js -->
<g id="edge13" class="edge">
<title>src/listeners/remove&#45;item.js&#45;&gt;src/handlers/remove&#45;item.js</title>
<path fill="none" stroke="#000000" stroke-width="2" stroke-opacity="0.200000" d="M181.67,-33C187.34,-33 193.24,-33 199.04,-33"/>
<polygon fill="#000000" fill-opacity="0.200000" stroke="#000000" stroke-width="2" stroke-opacity="0.200000" points="199.27,-35.1 205.27,-33 199.27,-30.9 199.27,-35.1"/>
</g>
<!-- src/schema.js -->
<g id="node15" class="node">
<title>src/schema.js</title>
<g id="a_node15"><a xlink:href="../src/schema.js" xlink:title="schema.js">
<path fill="#ccffcc" stroke="black" d="M75.06,-34.3C75.06,-34.3 31.44,-34.3 31.44,-34.3 28.34,-34.3 25.24,-31.2 25.24,-28.1 25.24,-28.1 25.24,-21.9 25.24,-21.9 25.24,-18.8 28.34,-15.7 31.44,-15.7 31.44,-15.7 75.06,-15.7 75.06,-15.7 78.16,-15.7 81.26,-18.8 81.26,-21.9 81.26,-21.9 81.26,-28.1 81.26,-28.1 81.26,-31.2 78.16,-34.3 75.06,-34.3"/>
<text text-anchor="middle" x="53.25" y="-22.3" font-family="Helvetica,sans-Serif" font-size="9.00">schema.js</text>
</a>
</g>
</g>
</g>
</svg>
