<?xml version="1.0" encoding="UTF-8" standalone="no"?>
<!DOCTYPE svg PUBLIC "-//W3C//DTD SVG 1.1//EN"
 "http://www.w3.org/Graphics/SVG/1.1/DTD/svg11.dtd">
<!-- Generated by graphviz version 2.44.0 (20200408.0750)
 -->
<!-- Title: dependency&#45;cruiser output Pages: 1 -->
<svg width="479pt" height="235pt"
 viewBox="0.00 0.00 479.48 235.00" xmlns="http://www.w3.org/2000/svg" xmlns:xlink="http://www.w3.org/1999/xlink">
<g id="graph0" class="graph" transform="scale(1 1) rotate(0) translate(4 231)">
<title>dependency&#45;cruiser output</title>
<polygon fill="white" stroke="transparent" points="-4,4 -4,-231 475.48,-231 475.48,4 -4,4"/>
<g id="clust1" class="cluster">
<title>cluster_src</title>
<path fill="#ffffff" stroke="black" stroke-width="2" d="M20,-8C20,-8 451.48,-8 451.48,-8 457.48,-8 463.48,-14 463.48,-20 463.48,-20 463.48,-207 463.48,-207 463.48,-213 457.48,-219 451.48,-219 451.48,-219 20,-219 20,-219 14,-219 8,-213 8,-207 8,-207 8,-20 8,-20 8,-14 14,-8 20,-8"/>
<text text-anchor="middle" x="235.74" y="-206.9" font-family="Helvetica,sans-Serif" font-weight="bold" font-size="9.00">src</text>
</g>
<g id="clust2" class="cluster">
<title>cluster_src/components</title>
<path fill="#ffffff" stroke="black" stroke-width="2" d="M30.25,-139C30.25,-139 250.5,-139 250.5,-139 256.5,-139 262.5,-145 262.5,-151 262.5,-151 262.5,-180 262.5,-180 262.5,-186 256.5,-192 250.5,-192 250.5,-192 30.25,-192 30.25,-192 24.25,-192 18.25,-186 18.25,-180 18.25,-180 18.25,-151 18.25,-151 18.25,-145 24.25,-139 30.25,-139"/>
<text text-anchor="middle" x="140.38" y="-179.9" font-family="Helvetica,sans-Serif" font-weight="bold" font-size="9.00">components</text>
</g>
<g id="clust3" class="cluster">
<title>cluster_src/handlers</title>
<path fill="#ffffff" stroke="black" stroke-width="2" d="M287.49,-77C287.49,-77 443.48,-77 443.48,-77 449.48,-77 455.48,-83 455.48,-89 455.48,-89 455.48,-180 455.48,-180 455.48,-186 449.48,-192 443.48,-192 443.48,-192 287.49,-192 287.49,-192 281.49,-192 275.49,-186 275.49,-180 275.49,-180 275.49,-89 275.49,-89 275.49,-83 281.49,-77 287.49,-77"/>
<text text-anchor="middle" x="365.48" y="-179.9" font-family="Helvetica,sans-Serif" font-weight="bold" font-size="9.00">handlers</text>
</g>
<g id="clust4" class="cluster">
<title>cluster_src/init</title>
<path fill="#ffffff" stroke="black" stroke-width="2" d="M110.5,-47C110.5,-47 156.5,-47 156.5,-47 162.5,-47 168.5,-53 168.5,-59 168.5,-59 168.5,-88 168.5,-88 168.5,-94 162.5,-100 156.5,-100 156.5,-100 110.5,-100 110.5,-100 104.5,-100 98.5,-94 98.5,-88 98.5,-88 98.5,-59 98.5,-59 98.5,-53 104.5,-47 110.5,-47"/>
<text text-anchor="middle" x="133.5" y="-87.9" font-family="Helvetica,sans-Serif" font-weight="bold" font-size="9.00">init</text>
</g>
<g id="clust5" class="cluster">
<title>cluster_src/listeners</title>
<path fill="#ffffff" stroke="black" stroke-width="2" d="M188.5,-16C188.5,-16 255.49,-16 255.49,-16 261.49,-16 267.49,-22 267.49,-28 267.49,-28 267.49,-119 267.49,-119 267.49,-125 261.49,-131 255.49,-131 255.49,-131 188.5,-131 188.5,-131 182.5,-131 176.5,-125 176.5,-119 176.5,-119 176.5,-28 176.5,-28 176.5,-22 182.5,-16 188.5,-16"/>
<text text-anchor="middle" x="222" y="-118.9" font-family="Helvetica,sans-Serif" font-weight="bold" font-size="9.00">listeners</text>
</g>
<!-- src/DOMstudies.js -->
<g id="node1" class="node">
<title>src/DOMstudies.js</title>
<g id="a_node1"><a xlink:href="../src/DOMstudies.js" xlink:title="DOMstudies.js">
<path fill="#ccffcc" stroke="black" d="M84.05,-114.3C84.05,-114.3 22.45,-114.3 22.45,-114.3 19.35,-114.3 16.25,-111.2 16.25,-108.1 16.25,-108.1 16.25,-101.9 16.25,-101.9 16.25,-98.8 19.35,-95.7 22.45,-95.7 22.45,-95.7 84.05,-95.7 84.05,-95.7 87.15,-95.7 90.25,-98.8 90.25,-101.9 90.25,-101.9 90.25,-108.1 90.25,-108.1 90.25,-111.2 87.15,-114.3 84.05,-114.3"/>
<text text-anchor="middle" x="53.25" y="-102.3" font-family="Helvetica,sans-Serif" font-size="9.00">DOMstudies.js</text>
</a>
</g>
</g>
<!-- src/components/delete&#45;btn.js -->
<g id="node2" class="node">
<title>src/components/delete&#45;btn.js</title>
<g id="a_node2"><a xlink:href="../src/components/delete-btn.js" xlink:title="delete&#45;btn.js">
<path fill="#ffffcc" stroke="black" d="M248.31,-165.3C248.31,-165.3 195.69,-165.3 195.69,-165.3 192.58,-165.3 189.48,-162.2 189.48,-159.1 189.48,-159.1 189.48,-152.9 189.48,-152.9 189.48,-149.8 192.58,-146.7 195.69,-146.7 195.69,-146.7 248.31,-146.7 248.31,-146.7 251.41,-146.7 254.51,-149.8 254.51,-152.9 254.51,-152.9 254.51,-159.1 254.51,-159.1 254.51,-162.2 251.41,-165.3 248.31,-165.3"/>
<text text-anchor="middle" x="222" y="-153.3" font-family="Helvetica,sans-Serif" font-size="9.00">delete&#45;btn.js</text>
</a>
</g>
</g>
<!-- src/handlers/remove&#45;item.js -->
<g id="node3" class="node">
<title>src/handlers/remove&#45;item.js</title>
<g id="a_node3"><a xlink:href="../src/handlers/remove-item.js" xlink:title="remove&#45;item.js">
<path fill="#ffffcc" stroke="black" d="M352.28,-165.3C352.28,-165.3 289.7,-165.3 289.7,-165.3 286.6,-165.3 283.5,-162.2 283.5,-159.1 283.5,-159.1 283.5,-152.9 283.5,-152.9 283.5,-149.8 286.6,-146.7 289.7,-146.7 289.7,-146.7 352.28,-146.7 352.28,-146.7 355.38,-146.7 358.48,-149.8 358.48,-152.9 358.48,-152.9 358.48,-159.1 358.48,-159.1 358.48,-162.2 355.38,-165.3 352.28,-165.3"/>
<text text-anchor="middle" x="320.99" y="-153.3" font-family="Helvetica,sans-Serif" font-size="9.00">remove&#45;item.js</text>
</a>
</g>
</g>
<!-- src/components/delete&#45;btn.js&#45;&gt;src/handlers/remove&#45;item.js -->
<g id="edge1" class="edge">
<title>src/components/delete&#45;btn.js&#45;&gt;src/handlers/remove&#45;item.js</title>
<path fill="none" stroke="#000000" stroke-width="2" stroke-opacity="0.200000" d="M254.76,-156C259.48,-156 264.46,-156 269.46,-156"/>
<polygon fill="#000000" fill-opacity="0.200000" stroke="#000000" stroke-width="2" stroke-opacity="0.200000" points="277.45,-158.1 283.45,-156 277.45,-153.9 277.45,-158.1"/>
<polyline fill="none" stroke="#000000" stroke-width="2" stroke-opacity="0.200000" points="277.45,-156 274.45,-156 "/>
<ellipse fill="none" stroke="#000000" stroke-width="2" stroke-opacity="0.200000" cx="272.05" cy="-156" rx="2.4" ry="2.4"/>
</g>
<!-- src/data.js -->
<g id="node6" class="node">
<title>src/data.js</title>
<g id="a_node6"><a xlink:href="../src/data.js" xlink:title="data.js">
<path fill="#ffffcc" stroke="black" d="M430.28,-69.3C430.28,-69.3 388.68,-69.3 388.68,-69.3 385.58,-69.3 382.48,-66.2 382.48,-63.1 382.48,-63.1 382.48,-56.9 382.48,-56.9 382.48,-53.8 385.58,-50.7 388.68,-50.7 388.68,-50.7 430.28,-50.7 430.28,-50.7 433.38,-50.7 436.48,-53.8 436.48,-56.9 436.48,-56.9 436.48,-63.1 436.48,-63.1 436.48,-66.2 433.38,-69.3 430.28,-69.3"/>
<text text-anchor="middle" x="409.48" y="-57.3" font-family="Helvetica,sans-Serif" font-size="9.00">data.js</text>
</a>
</g>
</g>
<!-- src/handlers/remove&#45;item.js&#45;&gt;src/data.js -->
<g id="edge7" class="edge">
<title>src/handlers/remove&#45;item.js&#45;&gt;src/data.js</title>
<path fill="none" stroke="#000000" stroke-width="2" stroke-opacity="0.200000" d="M351,-146.61C353.83,-144.77 356.41,-142.59 358.49,-140 377.19,-116.68 352.19,-96.83 371.49,-74 373.13,-72.05 375.08,-70.38 377.2,-68.93"/>
<polygon fill="#000000" fill-opacity="0.200000" stroke="#000000" stroke-width="2" stroke-opacity="0.200000" points="378.25,-70.75 382.43,-65.97 376.18,-67.1 378.25,-70.75"/>
</g>
<!-- src/handlers/re&#45;render&#45;list.js -->
<g id="node8" class="node">
<title>src/handlers/re&#45;render&#45;list.js</title>
<g id="a_node8"><a xlink:href="../src/handlers/re-render-list.js" xlink:title="re&#45;render&#45;list.js">
<path fill="#ffffcc" stroke="black" d="M441.27,-165.3C441.27,-165.3 377.69,-165.3 377.69,-165.3 374.59,-165.3 371.49,-162.2 371.49,-159.1 371.49,-159.1 371.49,-152.9 371.49,-152.9 371.49,-149.8 374.59,-146.7 377.69,-146.7 377.69,-146.7 441.27,-146.7 441.27,-146.7 444.37,-146.7 447.47,-149.8 447.47,-152.9 447.47,-152.9 447.47,-159.1 447.47,-159.1 447.47,-162.2 444.37,-165.3 441.27,-165.3"/>
<text text-anchor="middle" x="409.48" y="-153.3" font-family="Helvetica,sans-Serif" font-size="9.00">re&#45;render&#45;list.js</text>
</a>
</g>
</g>
<!-- src/handlers/remove&#45;item.js&#45;&gt;src/handlers/re&#45;render&#45;list.js -->
<g id="edge8" class="edge">
<title>src/handlers/remove&#45;item.js&#45;&gt;src/handlers/re&#45;render&#45;list.js</title>
<path fill="none" stroke="#000000" stroke-width="2" stroke-opacity="0.200000" d="M358.67,-156C358.8,-156 358.93,-156 359.07,-156"/>
<polygon fill="#000000" fill-opacity="0.200000" stroke="#000000" stroke-width="2" stroke-opacity="0.200000" points="365.47,-158.1 371.47,-156 365.47,-153.9 365.47,-158.1"/>
<polyline fill="none" stroke="#000000" stroke-width="2" stroke-opacity="0.200000" points="365.47,-156 362.47,-156 "/>
<ellipse fill="none" stroke="#000000" stroke-width="2" stroke-opacity="0.200000" cx="360.07" cy="-156" rx="2.4" ry="2.4"/>
</g>
<!-- src/components/list&#45;item.js -->
<g id="node4" class="node">
<title>src/components/list&#45;item.js</title>
<g id="a_node4"><a xlink:href="../src/components/list-item.js" xlink:title="list&#45;item.js">
<path fill="#ffffcc" stroke="black" d="M155.29,-165.3C155.29,-165.3 111.71,-165.3 111.71,-165.3 108.61,-165.3 105.51,-162.2 105.51,-159.1 105.51,-159.1 105.51,-152.9 105.51,-152.9 105.51,-149.8 108.61,-146.7 111.71,-146.7 111.71,-146.7 155.29,-146.7 155.29,-146.7 158.39,-146.7 161.49,-149.8 161.49,-152.9 161.49,-152.9 161.49,-159.1 161.49,-159.1 161.49,-162.2 158.39,-165.3 155.29,-165.3"/>
<text text-anchor="middle" x="133.5" y="-153.3" font-family="Helvetica,sans-Serif" font-size="9.00">list&#45;item.js</text>
</a>
</g>
</g>
<!-- src/components/list&#45;item.js&#45;&gt;src/components/delete&#45;btn.js -->
<g id="edge2" class="edge">
<title>src/components/list&#45;item.js&#45;&gt;src/components/delete&#45;btn.js</title>
<path fill="none" stroke="#000000" stroke-width="2" stroke-opacity="0.200000" d="M161.87,-156C166.22,-156 170.83,-156 175.47,-156"/>
<polygon fill="#000000" fill-opacity="0.200000" stroke="#000000" stroke-width="2" stroke-opacity="0.200000" points="183.28,-158.1 189.28,-156 183.28,-153.9 183.28,-158.1"/>
<polyline fill="none" stroke="#000000" stroke-width="2" stroke-opacity="0.200000" points="183.28,-156 180.28,-156 "/>
<ellipse fill="none" stroke="#000000" stroke-width="2" stroke-opacity="0.200000" cx="177.88" cy="-156" rx="2.4" ry="2.4"/>
</g>
<!-- src/components/list.js -->
<g id="node5" class="node">
<title>src/components/list.js</title>
<g id="a_node5"><a xlink:href="../src/components/list.js" xlink:title="list.js">
<path fill="#ffffcc" stroke="black" d="M74.05,-165.3C74.05,-165.3 32.45,-165.3 32.45,-165.3 29.35,-165.3 26.25,-162.2 26.25,-159.1 26.25,-159.1 26.25,-152.9 26.25,-152.9 26.25,-149.8 29.35,-146.7 32.45,-146.7 32.45,-146.7 74.05,-146.7 74.05,-146.7 77.15,-146.7 80.25,-149.8 80.25,-152.9 80.25,-152.9 80.25,-159.1 80.25,-159.1 80.25,-162.2 77.15,-165.3 74.05,-165.3"/>
<text text-anchor="middle" x="53.25" y="-153.3" font-family="Helvetica,sans-Serif" font-size="9.00">list.js</text>
</a>
</g>
</g>
<!-- src/components/list.js&#45;&gt;src/components/list&#45;item.js -->
<g id="edge3" class="edge">
<title>src/components/list.js&#45;&gt;src/components/list&#45;item.js</title>
<path fill="none" stroke="#000000" stroke-width="2" stroke-opacity="0.200000" d="M80.31,-156C83.97,-156 87.81,-156 91.67,-156"/>
<polygon fill="#000000" fill-opacity="0.200000" stroke="#000000" stroke-width="2" stroke-opacity="0.200000" points="99.49,-158.1 105.49,-156 99.49,-153.9 99.49,-158.1"/>
<polyline fill="none" stroke="#000000" stroke-width="2" stroke-opacity="0.200000" points="99.49,-156 96.49,-156 "/>
<ellipse fill="none" stroke="#000000" stroke-width="2" stroke-opacity="0.200000" cx="94.09" cy="-156" rx="2.4" ry="2.4"/>
</g>
<!-- src/handlers/add&#45;item.js -->
<g id="node7" class="node">
<title>src/handlers/add&#45;item.js</title>
<g id="a_node7"><a xlink:href="../src/handlers/add-item.js" xlink:title="add&#45;item.js">
<path fill="#ffffcc" stroke="black" d="M344.79,-134.3C344.79,-134.3 297.19,-134.3 297.19,-134.3 294.09,-134.3 290.99,-131.2 290.99,-128.1 290.99,-128.1 290.99,-121.9 290.99,-121.9 290.99,-118.8 294.09,-115.7 297.19,-115.7 297.19,-115.7 344.79,-115.7 344.79,-115.7 347.89,-115.7 350.99,-118.8 350.99,-121.9 350.99,-121.9 350.99,-128.1 350.99,-128.1 350.99,-131.2 347.89,-134.3 344.79,-134.3"/>
<text text-anchor="middle" x="320.99" y="-122.3" font-family="Helvetica,sans-Serif" font-size="9.00">add&#45;item.js</text>
</a>
</g>
</g>
<!-- src/handlers/add&#45;item.js&#45;&gt;src/data.js -->
<g id="edge4" class="edge">
<title>src/handlers/add&#45;item.js&#45;&gt;src/data.js</title>
<path fill="none" stroke="#000000" stroke-width="2" stroke-opacity="0.200000" d="M349.88,-115.7C353.04,-113.83 356.02,-111.62 358.49,-109 369.88,-96.93 359.79,-85.77 371.49,-74 373.08,-72.4 374.88,-70.97 376.8,-69.71"/>
<polygon fill="#000000" fill-opacity="0.200000" stroke="#000000" stroke-width="2" stroke-opacity="0.200000" points="377.91,-71.5 382.12,-66.73 375.85,-67.83 377.91,-71.5"/>
</g>
<!-- src/handlers/add&#45;item.js&#45;&gt;src/handlers/re&#45;render&#45;list.js -->
<g id="edge5" class="edge">
<title>src/handlers/add&#45;item.js&#45;&gt;src/handlers/re&#45;render&#45;list.js</title>
<path fill="none" stroke="#000000" stroke-width="2" stroke-opacity="0.200000" d="M347.41,-134.3C355.13,-137.11 363.65,-140.2 371.49,-143 372.94,-143.52 374.44,-144.05 375.94,-144.59"/>
<polygon fill="#000000" fill-opacity="0.200000" stroke="#000000" stroke-width="2" stroke-opacity="0.200000" points="375.44,-146.64 381.8,-146.66 376.84,-142.68 375.44,-146.64"/>
</g>
<!-- src/handlers/re&#45;render&#45;list.js&#45;&gt;src/components/list.js -->
<g id="edge6" class="edge">
<title>src/handlers/re&#45;render&#45;list.js&#45;&gt;src/components/list.js</title>
<path fill="none" stroke="#000000" stroke-width="2" stroke-opacity="0.200000" d="M382.6,-165.33C374.94,-167.66 366.47,-169.83 358.49,-171 244.16,-187.78 212.51,-189.8 98.5,-171 95.97,-170.58 93.39,-170.04 90.81,-169.41"/>
<polygon fill="#000000" fill-opacity="0.200000" stroke="#000000" stroke-width="2" stroke-opacity="0.200000" points="83.66,-165.1 77.31,-165.4 82.46,-169.12 83.66,-165.1"/>
<polyline fill="none" stroke="#000000" stroke-width="2" stroke-opacity="0.200000" points="83.06,-167.11 85.94,-167.96 "/>
<ellipse fill="none" stroke="#000000" stroke-width="2" stroke-opacity="0.200000" cx="88.24" cy="-168.65" rx="2.4" ry="2.4"/>
</g>
<!-- src/handlers/filter&#45;items.js -->
<g id="node9" class="node">
<title>src/handlers/filter&#45;items.js</title>
<g id="a_node9"><a xlink:href="../src/handlers/filter-items.js" xlink:title="filter&#45;items.js">
<path fill="#ccffcc" stroke="black" d="M348.28,-103.3C348.28,-103.3 293.7,-103.3 293.7,-103.3 290.6,-103.3 287.5,-100.2 287.5,-97.1 287.5,-97.1 287.5,-90.9 287.5,-90.9 287.5,-87.8 290.6,-84.7 293.7,-84.7 293.7,-84.7 348.28,-84.7 348.28,-84.7 351.38,-84.7 354.48,-87.8 354.48,-90.9 354.48,-90.9 354.48,-97.1 354.48,-97.1 354.48,-100.2 351.38,-103.3 348.28,-103.3"/>
<text text-anchor="middle" x="320.99" y="-91.3" font-family="Helvetica,sans-Serif" font-size="9.00">filter&#45;items.js</text>
</a>
</g>
</g>
<!-- src/init/index.js -->
<g id="node10" class="node">
<title>src/init/index.js</title>
<g id="a_node10"><a xlink:href="../src/init/index.js" xlink:title="index.js">
<path fill="#ffffcc" stroke="black" d="M154.3,-73.3C154.3,-73.3 112.7,-73.3 112.7,-73.3 109.6,-73.3 106.5,-70.2 106.5,-67.1 106.5,-67.1 106.5,-60.9 106.5,-60.9 106.5,-57.8 109.6,-54.7 112.7,-54.7 112.7,-54.7 154.3,-54.7 154.3,-54.7 157.4,-54.7 160.5,-57.8 160.5,-60.9 160.5,-60.9 160.5,-67.1 160.5,-67.1 160.5,-70.2 157.4,-73.3 154.3,-73.3"/>
<text text-anchor="middle" x="133.5" y="-61.3" font-family="Helvetica,sans-Serif" font-size="9.00">index.js</text>
</a>
</g>
</g>
<!-- src/listeners/add&#45;item.js -->
<g id="node11" class="node">
<title>src/listeners/add&#45;item.js</title>
<g id="a_node11"><a xlink:href="../src/listeners/add-item.js" xlink:title="add&#45;item.js">
<path fill="#ffffcc" stroke="black" d="M245.8,-73.3C245.8,-73.3 198.2,-73.3 198.2,-73.3 195.1,-73.3 192,-70.2 192,-67.1 192,-67.1 192,-60.9 192,-60.9 192,-57.8 195.1,-54.7 198.2,-54.7 198.2,-54.7 245.8,-54.7 245.8,-54.7 248.9,-54.7 252,-57.8 252,-60.9 252,-60.9 252,-67.1 252,-67.1 252,-70.2 248.9,-73.3 245.8,-73.3"/>
<text text-anchor="middle" x="222" y="-61.3" font-family="Helvetica,sans-Serif" font-size="9.00">add&#45;item.js</text>
</a>
</g>
</g>
<!-- src/init/index.js&#45;&gt;src/listeners/add&#45;item.js -->
<g id="edge9" class="edge">
<title>src/init/index.js&#45;&gt;src/listeners/add&#45;item.js</title>
<path fill="none" stroke="#000000" stroke-width="2" stroke-opacity="0.200000" d="M160.92,-64C168.68,-64 177.3,-64 185.52,-64"/>
<polygon fill="#000000" fill-opacity="0.200000" stroke="#000000" stroke-width="2" stroke-opacity="0.200000" points="185.72,-66.1 191.72,-64 185.72,-61.9 185.72,-66.1"/>
</g>
<!-- src/listeners/filter&#45;items.js -->
<g id="node12" class="node">
<title>src/listeners/filter&#45;items.js</title>
<g id="a_node12"><a xlink:href="../src/listeners/filter-items.js" xlink:title="filter&#45;items.js">
<path fill="#ffffcc" stroke="black" d="M249.28,-42.3C249.28,-42.3 194.71,-42.3 194.71,-42.3 191.61,-42.3 188.51,-39.2 188.51,-36.1 188.51,-36.1 188.51,-29.9 188.51,-29.9 188.51,-26.8 191.61,-23.7 194.71,-23.7 194.71,-23.7 249.28,-23.7 249.28,-23.7 252.39,-23.7 255.49,-26.8 255.49,-29.9 255.49,-29.9 255.49,-36.1 255.49,-36.1 255.49,-39.2 252.39,-42.3 249.28,-42.3"/>
<text text-anchor="middle" x="222" y="-30.3" font-family="Helvetica,sans-Serif" font-size="9.00">filter&#45;items.js</text>
</a>
</g>
</g>
<!-- src/init/index.js&#45;&gt;src/listeners/filter&#45;items.js -->
<g id="edge10" class="edge">
<title>src/init/index.js&#45;&gt;src/listeners/filter&#45;items.js</title>
<path fill="none" stroke="#000000" stroke-width="2" stroke-opacity="0.200000" d="M160.92,-54.53C169.89,-51.32 180,-47.69 189.34,-44.35"/>
<polygon fill="#000000" fill-opacity="0.200000" stroke="#000000" stroke-width="2" stroke-opacity="0.200000" points="190.09,-46.31 195.03,-42.3 188.68,-42.35 190.09,-46.31"/>
</g>
<!-- src/listeners/remove&#45;item.js -->
<g id="node13" class="node">
<title>src/listeners/remove&#45;item.js</title>
<g id="a_node13"><a xlink:href="../src/listeners/remove-item.js" xlink:title="remove&#45;item.js">
<path fill="#ffffcc" stroke="black" d="M253.29,-104.3C253.29,-104.3 190.7,-104.3 190.7,-104.3 187.6,-104.3 184.5,-101.2 184.5,-98.1 184.5,-98.1 184.5,-91.9 184.5,-91.9 184.5,-88.8 187.6,-85.7 190.7,-85.7 190.7,-85.7 253.29,-85.7 253.29,-85.7 256.39,-85.7 259.49,-88.8 259.49,-91.9 259.49,-91.9 259.49,-98.1 259.49,-98.1 259.49,-101.2 256.39,-104.3 253.29,-104.3"/>
<text text-anchor="middle" x="222" y="-92.3" font-family="Helvetica,sans-Serif" font-size="9.00">remove&#45;item.js</text>
</a>
</g>
</g>
<!-- src/init/index.js&#45;&gt;src/listeners/remove&#45;item.js -->
<g id="edge11" class="edge">
<title>src/init/index.js&#45;&gt;src/listeners/remove&#45;item.js</title>
<path fill="none" stroke="#000000" stroke-width="2" stroke-opacity="0.200000" d="M160.92,-73.47C169.89,-76.68 180,-80.31 189.34,-83.65"/>
<polygon fill="#000000" fill-opacity="0.200000" stroke="#000000" stroke-width="2" stroke-opacity="0.200000" points="188.68,-85.65 195.03,-85.7 190.09,-81.69 188.68,-85.65"/>
</g>
<!-- src/listeners/add&#45;item.js&#45;&gt;src/handlers/add&#45;item.js -->
<g id="edge12" class="edge">
<title>src/listeners/add&#45;item.js&#45;&gt;src/handlers/add&#45;item.js</title>
<path fill="none" stroke="#000000" stroke-width="2" stroke-opacity="0.200000" d="M252.23,-70.01C257.9,-72.33 263.36,-75.54 267.49,-80 276.58,-89.81 266.41,-99.19 275.49,-109 278.27,-111.99 281.64,-114.43 285.28,-116.41"/>
<polygon fill="#000000" fill-opacity="0.200000" stroke="#000000" stroke-width="2" stroke-opacity="0.200000" points="284.44,-118.33 290.76,-118.99 286.23,-114.53 284.44,-118.33"/>
</g>
<!-- src/schema.js -->
<g id="node14" class="node">
<title>src/schema.js</title>
<g id="a_node14"><a xlink:href="../src/schema.js" xlink:title="schema.js">
<path fill="#ccffcc" stroke="black" d="M75.06,-67.3C75.06,-67.3 31.44,-67.3 31.44,-67.3 28.34,-67.3 25.24,-64.2 25.24,-61.1 25.24,-61.1 25.24,-54.9 25.24,-54.9 25.24,-51.8 28.34,-48.7 31.44,-48.7 31.44,-48.7 75.06,-48.7 75.06,-48.7 78.16,-48.7 81.26,-51.8 81.26,-54.9 81.26,-54.9 81.26,-61.1 81.26,-61.1 81.26,-64.2 78.16,-67.3 75.06,-67.3"/>
<text text-anchor="middle" x="53.25" y="-55.3" font-family="Helvetica,sans-Serif" font-size="9.00">schema.js</text>
</a>
</g>
</g>
</g>
</svg>
